<svg width="165" height="34" viewBox="0 0 165 34" fill="none" xmlns="http://www.w3.org/2000/svg">
<path fill-rule="evenodd" clip-rule="evenodd" d="M4.34977 26.712C8.79177 30.446 16.4458 29.252 21.8498 23.85C26.7398 18.96 28.1798 12.228 25.6438 7.7C25.5464 8.04667 25.4331 8.41533 25.3038 8.806C24.6478 10.778 23.5158 13.31 21.6298 15.198C20.5498 16.278 19.2298 16.778 17.9118 17.018C16.6418 17.25 15.2818 17.25 14.0558 17.25H13.9998C12.7098 17.25 11.5618 17.254 10.5338 17.44C9.53177 17.622 8.74377 17.964 8.13777 18.57C6.65177 20.056 5.67377 22.162 5.06577 23.984C4.769 24.8771 4.52984 25.7883 4.34977 26.712ZM2.35577 24.3C-0.180228 19.772 1.25977 13.04 6.14977 8.15C11.5538 2.746 19.2078 1.556 23.6498 5.288L23.5558 5.748C23.4318 6.32 23.2318 7.118 22.9318 8.016C22.3258 9.836 21.3478 11.944 19.8618 13.43C19.2558 14.036 18.4678 14.378 17.4658 14.56C16.4378 14.746 15.2898 14.75 13.9998 14.75H13.9438C12.7178 14.75 11.3578 14.75 10.0878 14.98C8.76977 15.22 7.44977 15.722 6.36977 16.802C4.48377 18.69 3.35177 21.222 2.69577 23.194C2.56644 23.5833 2.4531 23.952 2.35577 24.3Z" fill="#625DF5"/>
<path d="M38.208 3.36H42.368V16.128L41.728 17.312V20.672L42.368 22.016V28H38.208V3.36ZM40.704 18.944C41.1093 17.024 41.7813 15.36 42.72 13.952C43.6587 12.5227 44.8107 11.4133 46.176 10.624C47.5627 9.83467 49.0987 9.44 50.784 9.44C52.5547 9.44 54.1227 9.84533 55.488 10.656C56.8533 11.4453 57.92 12.5547 58.688 13.984C59.456 15.392 59.84 17.0453 59.84 18.944C59.84 20.8213 59.456 22.4747 58.688 23.904C57.92 25.3333 56.8533 26.4533 55.488 27.264C54.1227 28.0533 52.5547 28.448 50.784 28.448C49.0987 28.448 47.5627 28.0533 46.176 27.264C44.8107 26.4747 43.6587 25.3653 42.72 23.936C41.7813 22.5067 41.1093 20.8427 40.704 18.944ZM55.616 18.944C55.616 17.728 55.36 16.6613 54.848 15.744C54.3573 14.8053 53.6747 14.08 52.8 13.568C51.9253 13.0347 50.9227 12.768 49.792 12.768C48.6613 12.768 47.5947 13.0347 46.592 13.568C45.6107 14.08 44.7467 14.8053 44 15.744C43.2533 16.6613 42.6453 17.728 42.176 18.944C42.6453 20.16 43.2533 21.2373 44 22.176C44.7467 23.0933 45.6107 23.8187 46.592 24.352C47.5947 24.864 48.6613 25.12 49.792 25.12C50.9227 25.12 51.9253 24.864 52.8 24.352C53.6747 23.8187 54.3573 23.0933 54.848 22.176C55.36 21.2373 55.616 20.16 55.616 18.944ZM73.1898 28.448C71.0778 28.448 69.2004 28.0533 67.5578 27.264C65.9151 26.4533 64.6244 25.3333 63.6858 23.904C62.7471 22.4747 62.2778 20.8107 62.2778 18.912C62.2778 17.0347 62.7151 15.392 63.5898 13.984C64.4858 12.5547 65.7124 11.4453 67.2698 10.656C68.8484 9.84533 70.6511 9.44 72.6778 9.44C74.7044 9.44 76.4538 9.89867 77.9258 10.816C79.4191 11.712 80.5711 12.9813 81.3818 14.624C82.1924 16.2667 82.5978 18.1973 82.5978 20.416H65.5418V17.248H80.5178L78.4378 18.432C78.3738 17.2373 78.0858 16.2133 77.5738 15.36C77.0831 14.5067 76.4111 13.856 75.5578 13.408C74.7258 12.9387 73.7338 12.704 72.5818 12.704C71.3658 12.704 70.2991 12.9493 69.3818 13.44C68.4858 13.9307 67.7818 14.624 67.2698 15.52C66.7578 16.3947 66.5018 17.44 66.5018 18.656C66.5018 20 66.8004 21.1627 67.3978 22.144C68.0164 23.1253 68.8804 23.8827 69.9898 24.416C71.1204 24.928 72.4538 25.184 73.9898 25.184C75.3764 25.184 76.7951 24.9707 78.2458 24.544C79.6964 24.096 80.9764 23.4773 82.0858 22.688V25.696C80.9764 26.5493 79.6218 27.2213 78.0218 27.712C76.4431 28.2027 74.8324 28.448 73.1898 28.448ZM102.917 28L102.213 21.28L103.045 18.944L102.213 16.64L102.917 9.888H107.205L106.245 18.944L107.205 28H102.917ZM104.197 18.944C103.791 20.8427 103.119 22.5067 102.181 23.936C101.242 25.3653 100.079 26.4747 98.6925 27.264C97.3272 28.0533 95.8018 28.448 94.1165 28.448C92.3458 28.448 90.7778 28.0533 89.4125 27.264C88.0472 26.4533 86.9805 25.3333 86.2125 23.904C85.4445 22.4747 85.0605 20.8213 85.0605 18.944C85.0605 17.0453 85.4445 15.392 86.2125 13.984C86.9805 12.5547 88.0472 11.4453 89.4125 10.656C90.7778 9.84533 92.3458 9.44 94.1165 9.44C95.8018 9.44 97.3272 9.83467 98.6925 10.624C100.079 11.4133 101.242 12.5227 102.181 13.952C103.141 15.36 103.813 17.024 104.197 18.944ZM89.2845 18.944C89.2845 20.16 89.5298 21.2373 90.0205 22.176C90.5325 23.0933 91.2258 23.8187 92.1005 24.352C92.9752 24.864 93.9778 25.12 95.1085 25.12C96.2605 25.12 97.3272 24.864 98.3085 24.352C99.2898 23.8187 100.154 23.0933 100.901 22.176C101.669 21.2373 102.277 20.16 102.725 18.944C102.277 17.728 101.669 16.6613 100.901 15.744C100.154 14.8053 99.2898 14.08 98.3085 13.568C97.3272 13.0347 96.2605 12.768 95.1085 12.768C93.9778 12.768 92.9752 13.0347 92.1005 13.568C91.2258 14.08 90.5325 14.8053 90.0205 15.744C89.5298 16.6613 89.2845 17.728 89.2845 18.944ZM110.344 9.888H114.504L115.592 16.416V28H111.432V15.808L110.344 9.888ZM122.792 9.44C124.499 9.44 125.949 9.78133 127.144 10.464C128.339 11.1467 129.245 12.128 129.864 13.408C130.504 14.6667 130.824 16.192 130.824 17.984V28H126.664V18.656C126.664 16.7573 126.216 15.328 125.32 14.368C124.445 13.3867 123.155 12.896 121.448 12.896C120.275 12.896 119.24 13.1627 118.344 13.696C117.469 14.208 116.787 14.9333 116.296 15.872C115.827 16.8107 115.592 17.9093 115.592 19.168L114.12 18.368C114.312 16.4907 114.803 14.8907 115.592 13.568C116.381 12.2453 117.395 11.232 118.632 10.528C119.869 9.80267 121.256 9.44 122.792 9.44ZM134.989 3.36H139.149V28H134.989V3.36ZM147.904 33.728C146.837 33.728 145.866 33.5893 144.992 33.312C144.138 33.056 143.338 32.6933 142.592 32.224V29.056C143.402 29.568 144.17 29.9413 144.896 30.176C145.642 30.4107 146.474 30.528 147.392 30.528C148.266 30.528 149.045 30.3253 149.728 29.92C150.41 29.536 150.976 28.8533 151.424 27.872L159.584 9.888H164L154.624 29.28C154.112 30.3467 153.504 31.2 152.8 31.84C152.117 32.5013 151.36 32.9813 150.528 33.28C149.717 33.5787 148.842 33.728 147.904 33.728ZM149.984 27.424L141.664 9.888H146.24L154.112 27.424H149.984Z" fill="#625DF5"/>
</svg>
