<svg width="28" height="28" viewBox="0 0 28 28" fill="none" xmlns="http://www.w3.org/2000/svg">
<path fill-rule="evenodd" clip-rule="evenodd" d="M4.34977 24.712C8.79177 28.446 16.4458 27.252 21.8498 21.85C26.7398 16.96 28.1798 10.228 25.6438 5.70002C25.5464 6.04668 25.4331 6.41535 25.3038 6.80602C24.6478 8.77802 23.5158 11.31 21.6298 13.198C20.5498 14.278 19.2298 14.778 17.9118 15.018C16.6418 15.25 15.2818 15.25 14.0558 15.25H13.9998C12.7098 15.25 11.5618 15.254 10.5338 15.44C9.53177 15.622 8.74377 15.964 8.13777 16.57C6.65177 18.056 5.67377 20.162 5.06577 21.984C4.769 22.8771 4.52984 23.7883 4.34977 24.712ZM2.35577 22.3C-0.180228 17.772 1.25977 11.04 6.14977 6.15002C11.5538 0.746018 19.2078 -0.443983 23.6498 3.28802L23.5558 3.74802C23.4318 4.32002 23.2318 5.11802 22.9318 6.01602C22.3258 7.83602 21.3478 9.94402 19.8618 11.43C19.2558 12.036 18.4678 12.378 17.4658 12.56C16.4378 12.746 15.2898 12.75 13.9998 12.75H13.9438C12.7178 12.75 11.3578 12.75 10.0878 12.98C8.76977 13.22 7.44977 13.722 6.36977 14.802C4.48377 16.69 3.35177 19.222 2.69577 21.194C2.56644 21.5834 2.4531 21.952 2.35577 22.3Z" fill="#625DF5"/>
</svg>
