<svg width="24" height="24" viewBox="0 0 24 24" fill="none" xmlns="http://www.w3.org/2000/svg">
<path fill-rule="evenodd" clip-rule="evenodd" d="M5.636 4.15501C3.982 4.94501 2.75 6.83901 2.75 9.11901C2.75 13.346 5.749 15.771 8.587 18.067C8.87433 18.2977 9.15833 18.5287 9.439 18.76C9.965 19.193 10.434 19.574 10.886 19.85C11.338 20.126 11.699 20.25 12 20.25C12.324 20.25 12.689 20.111 13.127 19.841C11.765 18.794 10.25 17.341 10.25 15.059C10.25 13.486 11.187 12.132 12.523 11.551C13.733 11.025 15.191 11.161 16.5 12.164C17.314 11.54 18.192 11.246 19.047 11.25C19.6714 11.2529 20.2845 11.4169 20.827 11.726C21.1115 10.8864 21.2544 10.0054 21.25 9.11901C21.25 6.83901 20.018 4.94501 18.364 4.15501C16.768 3.39201 14.614 3.58501 12.552 5.82501C12.4818 5.90138 12.3964 5.96234 12.3014 6.00404C12.2064 6.04574 12.1038 6.06727 12 6.06727C11.8962 6.06727 11.7936 6.04574 11.6986 6.00404C11.6036 5.96234 11.5182 5.90138 11.448 5.82501C9.386 3.58501 7.232 3.39201 5.636 4.15501ZM22.022 12.799C22.4967 13.4568 22.7515 14.2478 22.75 15.059C22.75 16.577 22.08 17.726 21.24 18.625C20.574 19.338 19.756 19.936 19.062 20.444L18.621 20.769C18.342 20.979 18.021 21.218 17.691 21.401C17.361 21.584 16.956 21.75 16.5 21.75C16.044 21.75 15.639 21.584 15.308 21.4C14.9942 21.2174 14.6931 21.0136 14.407 20.79C13.701 21.297 12.884 21.75 12 21.75C11.301 21.75 10.66 21.47 10.104 21.13C9.547 20.79 8.997 20.34 8.484 19.917C8.20185 19.6851 7.91818 19.4551 7.633 19.227C4.851 16.996 1.25 14.108 1.25 9.12001C1.25 6.31501 2.768 3.86401 4.99 2.80201C7.098 1.79401 9.692 2.10201 12 4.25401C14.307 2.10301 16.902 1.79401 19.01 2.80201C21.232 3.86401 22.75 6.31501 22.75 9.12001C22.75 10.49 22.479 11.708 22.022 12.8M13.121 12.928C12.7103 13.1121 12.362 13.4117 12.1186 13.7902C11.8752 14.1688 11.7471 14.61 11.75 15.06C11.75 16.943 13.22 18.059 14.845 19.25C14.9917 19.3567 15.1363 19.4633 15.279 19.57C15.571 19.789 15.811 19.965 16.037 20.09C16.263 20.215 16.406 20.25 16.5 20.25C16.594 20.25 16.738 20.215 16.963 20.09C17.188 19.965 17.429 19.789 17.721 19.57C17.8877 19.4453 18.0547 19.322 18.222 19.2C18.91 18.696 19.584 18.201 20.144 17.602C20.814 16.885 21.25 16.085 21.25 15.06C21.25 14.424 21.002 13.852 20.605 13.436C20.4037 13.2223 20.1613 13.0515 19.8924 12.9338C19.6235 12.8161 19.3335 12.7539 19.04 12.751C18.445 12.748 17.736 12.993 17.027 13.693C16.8866 13.8316 16.6973 13.9094 16.5 13.9094C16.3027 13.9094 16.1134 13.8316 15.973 13.693C14.931 12.663 13.877 12.599 13.121 12.928Z" fill="white"/>
</svg>
