<svg width="24" height="24" viewBox="0 0 24 24" fill="none" xmlns="http://www.w3.org/2000/svg">
<path fill-rule="evenodd" clip-rule="evenodd" d="M5.636 4.15489C3.982 4.94489 2.75 6.83889 2.75 9.11889C2.75 13.3459 5.749 15.7709 8.587 18.0669C8.87433 18.2976 9.15833 18.5286 9.439 18.7599C9.965 19.1929 10.434 19.5739 10.886 19.8499C11.338 20.1259 11.699 20.2499 12 20.2499C12.324 20.2499 12.689 20.1109 13.127 19.8409C11.765 18.7939 10.25 17.3409 10.25 15.0589C10.25 13.4859 11.187 12.1319 12.523 11.5509C13.733 11.0249 15.191 11.1609 16.5 12.1639C17.314 11.5399 18.192 11.2459 19.047 11.2499C19.6714 11.2528 20.2845 11.4168 20.827 11.7259C21.1115 10.8863 21.2544 10.0053 21.25 9.11889C21.25 6.83889 20.018 4.94489 18.364 4.15489C16.768 3.39189 14.614 3.58489 12.552 5.82489C12.4818 5.90126 12.3964 5.96222 12.3014 6.00392C12.2064 6.04562 12.1038 6.06715 12 6.06715C11.8962 6.06715 11.7936 6.04562 11.6986 6.00392C11.6036 5.96222 11.5182 5.90126 11.448 5.82489C9.386 3.58489 7.232 3.39189 5.636 4.15489ZM22.022 12.7989C22.4967 13.4567 22.7515 14.2477 22.75 15.0589C22.75 16.5769 22.08 17.7259 21.24 18.6249C20.574 19.3379 19.756 19.9359 19.062 20.4439L18.621 20.7689C18.342 20.9789 18.021 21.2179 17.691 21.4009C17.361 21.5839 16.956 21.7499 16.5 21.7499C16.044 21.7499 15.639 21.5839 15.308 21.3999C14.9942 21.2172 14.6931 21.0134 14.407 20.7899C13.701 21.2969 12.884 21.7499 12 21.7499C11.301 21.7499 10.66 21.4699 10.104 21.1299C9.547 20.7899 8.997 20.3399 8.484 19.9169C8.20185 19.685 7.91818 19.455 7.633 19.2269C4.851 16.9959 1.25 14.1079 1.25 9.11989C1.25 6.31489 2.768 3.86389 4.99 2.80189C7.098 1.79389 9.692 2.10189 12 4.25389C14.307 2.10289 16.902 1.79389 19.01 2.80189C21.232 3.86389 22.75 6.31489 22.75 9.11989C22.75 10.4899 22.479 11.7079 22.022 12.7999M13.121 12.9279C12.7103 13.112 12.362 13.4116 12.1186 13.7901C11.8752 14.1686 11.7471 14.6098 11.75 15.0599C11.75 16.9429 13.22 18.0589 14.845 19.2499C14.9917 19.3566 15.1363 19.4632 15.279 19.5699C15.571 19.7889 15.811 19.9649 16.037 20.0899C16.263 20.2149 16.406 20.2499 16.5 20.2499C16.594 20.2499 16.738 20.2149 16.963 20.0899C17.188 19.9649 17.429 19.7889 17.721 19.5699C17.8877 19.4452 18.0547 19.3219 18.222 19.1999C18.91 18.6959 19.584 18.2009 20.144 17.6019C20.814 16.8849 21.25 16.0849 21.25 15.0599C21.25 14.4239 21.002 13.8519 20.605 13.4359C20.4037 13.2222 20.1613 13.0514 19.8924 12.9337C19.6235 12.816 19.3335 12.7538 19.04 12.7509C18.445 12.7479 17.736 12.9929 17.027 13.6929C16.8866 13.8315 16.6973 13.9092 16.5 13.9092C16.3027 13.9092 16.1134 13.8315 15.973 13.6929C14.931 12.6629 13.877 12.5989 13.121 12.9279Z" fill="black"/>
</svg>
