<svg width="24" height="24" viewBox="0 0 24 24" fill="none" xmlns="http://www.w3.org/2000/svg">
<path fill-rule="evenodd" clip-rule="evenodd" d="M10.22 1.64609C10.7772 1.38538 11.3848 1.25024 12 1.25024C12.6152 1.25024 13.2228 1.38538 13.78 1.64609C15.956 2.66309 17.694 4.56609 18.884 6.75809C20.076 8.95209 20.75 11.4921 20.75 13.8571C20.75 18.7561 16.845 22.7501 12 22.7501C7.155 22.7501 3.25 18.7561 3.25 13.8571C3.25 11.4921 3.924 8.95209 5.116 6.75809C6.306 4.56709 8.044 2.66309 10.22 1.64609ZM11.25 2.85609C11.115 2.89642 10.983 2.94621 10.855 3.00509C9.046 3.85009 7.516 5.48109 6.434 7.47409C5.353 9.46409 4.75 11.7601 4.75 13.8571C4.75 17.6931 7.608 20.8281 11.25 21.2111V2.85609ZM12.75 2.85609V7.19009L15.378 4.56209C14.7232 3.92548 13.969 3.39992 13.145 3.00609C13.017 2.94721 12.885 2.89742 12.75 2.85709M16.386 5.67509L12.75 9.31109V12.6891L17.704 7.73509L17.566 7.47409C17.2243 6.84178 16.8296 6.23962 16.386 5.67409M18.358 9.20309L12.75 14.8101V17.6881L18.97 11.4681L19.017 11.5171C18.8639 10.7279 18.6431 9.95337 18.357 9.20209M19.237 13.3221L12.749 19.8101V21.2101C16.391 20.8271 19.249 17.6921 19.249 13.8561C19.249 13.6794 19.2457 13.5014 19.237 13.3221Z" fill="white"/>
</svg>
