<svg width="24" height="24" viewBox="0 0 24 24" fill="none" xmlns="http://www.w3.org/2000/svg">
<path d="M20.27 16.265L20.975 12.185C21.0163 11.9458 21.005 11.7005 20.9416 11.4663C20.8783 11.232 20.7646 11.0144 20.6084 10.8286C20.4522 10.6429 20.2573 10.4935 20.0373 10.391C19.8173 10.2884 19.5776 10.2352 19.335 10.235H14.154C14.033 10.235 13.9136 10.2087 13.8039 10.1579C13.6941 10.1071 13.5968 10.033 13.5186 9.94082C13.4403 9.84861 13.3831 9.74049 13.3509 9.62395C13.3187 9.50741 13.3122 9.38525 13.332 9.26596L13.995 5.22096C14.102 4.56416 14.0714 3.89227 13.905 3.24796C13.8331 2.98196 13.6954 2.73836 13.5045 2.53964C13.3137 2.34092 13.0758 2.19349 12.813 2.11096L12.668 2.06396C12.3401 1.95906 11.9845 1.98338 11.674 2.13196C11.334 2.29596 11.086 2.59496 10.994 2.94996L10.518 4.78396C10.3667 5.36767 10.1465 5.9313 9.86196 6.46296C9.44696 7.23996 8.80496 7.86296 8.13696 8.43796L6.69796 9.67796C6.49833 9.85047 6.34241 10.0678 6.24299 10.3122C6.14356 10.5566 6.10346 10.8211 6.12596 11.084L6.93796 20.477C6.97375 20.8924 7.164 21.2793 7.47115 21.5612C7.7783 21.8432 8.18001 21.9997 8.59696 22H13.245C16.727 22 19.698 19.574 20.27 16.265Z" fill="#2A2A2A"/>
<path fill-rule="evenodd" clip-rule="evenodd" d="M2.96808 9.48497C3.16134 9.47652 3.35039 9.54307 3.49574 9.67072C3.64109 9.79837 3.7315 9.97724 3.74808 10.17L4.71808 21.406C4.73451 21.5733 4.71666 21.7422 4.66562 21.9024C4.61458 22.0626 4.53142 22.2107 4.42122 22.3377C4.31102 22.4646 4.17609 22.5678 4.02468 22.6409C3.87327 22.714 3.70855 22.7554 3.54058 22.7627C3.37261 22.77 3.20492 22.743 3.04775 22.6833C2.89058 22.6236 2.74723 22.5324 2.62646 22.4155C2.50568 22.2985 2.41002 22.1582 2.3453 22.003C2.28059 21.8478 2.24819 21.6811 2.25008 21.513V10.234C2.25016 10.0407 2.32488 9.85483 2.45866 9.71528C2.59244 9.57573 2.77494 9.49322 2.96808 9.48497Z" fill="#2A2A2A"/>
</svg>
