<svg width="24" height="24" viewBox="0 0 24 24" fill="none" xmlns="http://www.w3.org/2000/svg">
<path fill-rule="evenodd" clip-rule="evenodd" d="M9.29602 1.99012C9.88902 2.54312 10.347 3.35812 10.582 4.28912C10.818 5.22112 10.802 6.16212 10.554 6.94312C10.309 7.71012 9.79202 8.43512 8.95102 8.67412C8.10002 8.91612 7.29102 8.55712 6.70402 8.00912C6.11102 7.45612 5.65302 6.64212 5.41802 5.71112C5.18202 4.77912 5.19802 3.83812 5.44602 3.05712C5.69102 2.28912 6.20802 1.56512 7.04902 1.32612C7.90002 1.08412 8.70902 1.44312 9.29602 1.99112M8.27302 3.08912C7.91902 2.75912 7.63302 2.72012 7.45902 2.76912C7.27602 2.82212 7.03202 3.02212 6.87502 3.51412C6.72302 3.99312 6.69502 4.64612 6.87202 5.34412C7.04902 6.04412 7.37802 6.58812 7.72702 6.91412C8.08102 7.24412 8.36702 7.28212 8.54102 7.23212C8.72402 7.18012 8.96802 6.98012 9.12502 6.48812C9.27702 6.00912 9.30502 5.35612 9.12802 4.65812C8.95102 3.95812 8.62202 3.41512 8.27302 3.08912ZM10.85 9.43912C11.5961 9.18762 12.404 9.18762 13.15 9.43912C13.977 9.71812 14.579 10.4111 15.137 11.2961C15.697 12.1861 16.307 13.4251 17.081 15.0031L17.988 16.8491C18.188 17.2541 18.346 17.5771 18.46 17.8341C18.573 18.0871 18.67 18.3341 18.71 18.5741C18.986 20.1871 17.793 21.7011 16.147 21.7491C15.887 21.7483 15.6281 21.7137 15.377 21.6461C15.0274 21.5611 14.6793 21.4697 14.333 21.3721L14.317 21.3681C13.9995 21.2749 13.679 21.1922 13.356 21.1201C12.4612 20.938 11.5388 20.938 10.644 21.1201C10.321 21.1922 10.0005 21.2749 9.68302 21.3681L9.66702 21.3721C9.23802 21.4891 8.89502 21.5841 8.62402 21.6461C8.37258 21.7138 8.1134 21.7484 7.85302 21.7491C6.20702 21.7011 5.01402 20.1871 5.29002 18.5741C5.33002 18.3341 5.42802 18.0871 5.54002 17.8341C5.65402 17.5771 5.81302 17.2541 6.01202 16.8491L6.91902 15.0031C7.69402 13.4251 8.30202 12.1851 8.86302 11.2961C9.42102 10.4111 10.022 9.71812 10.85 9.43912ZM12.671 10.8601C12.2363 10.7138 11.7657 10.7138 11.331 10.8601C11.018 10.9651 10.653 11.2721 10.133 12.0961C9.62002 12.9101 9.04602 14.0761 8.24502 15.7061L7.36602 17.4961C7.15902 17.9181 7.01302 18.2161 6.91102 18.4441C6.85074 18.5666 6.80316 18.6949 6.76902 18.8271C6.64202 19.5711 7.19302 20.2291 7.89702 20.2501C7.93702 20.2511 8.03702 20.2431 8.28502 20.1851C8.62051 20.1029 8.95456 20.0149 9.28702 19.9211L9.31702 19.9131C9.79402 19.7821 10.07 19.7061 10.347 19.6501C11.4382 19.4283 12.5628 19.4283 13.654 19.6501C13.932 19.7061 14.208 19.7821 14.686 19.9131L14.715 19.9211C15.163 20.0441 15.478 20.1301 15.717 20.1851C15.964 20.2431 16.066 20.2511 16.105 20.2501C16.809 20.2301 17.36 19.5701 17.233 18.8261C17.1988 18.6943 17.1512 18.5663 17.091 18.4441C16.9447 18.1256 16.793 17.8095 16.636 17.4961L15.757 15.7061C14.957 14.0761 14.382 12.9101 13.869 12.0961C13.349 11.2721 12.984 10.9661 12.671 10.8601ZM13.418 4.28912C13.653 3.35812 14.111 2.54312 14.704 1.99112C15.291 1.44312 16.1 1.08412 16.951 1.32612C17.792 1.56512 18.309 2.28912 18.554 3.05712C18.803 3.83712 18.818 4.77912 18.582 5.71112C18.347 6.64212 17.889 7.45612 17.296 8.00912C16.709 8.55712 15.9 8.91612 15.049 8.67412C14.208 8.43412 13.691 7.71012 13.446 6.94312C13.198 6.16212 13.182 5.22112 13.418 4.28912ZM16.541 2.76912C16.367 2.71912 16.081 2.75712 15.727 3.08812C15.379 3.41312 15.049 3.95712 14.872 4.65612C14.695 5.35512 14.722 6.00812 14.876 6.48712C15.032 6.97912 15.276 7.17912 15.46 7.23112C15.633 7.28112 15.919 7.24312 16.273 6.91212C16.622 6.58712 16.951 6.04312 17.128 5.34412C17.305 4.64512 17.278 3.99212 17.125 3.51312C16.968 3.02112 16.724 2.82112 16.541 2.76912ZM4.69502 9.20312C4.13202 8.81312 3.40302 8.60712 2.68502 8.86112C1.96402 9.11612 1.53302 9.73712 1.35502 10.3991C1.17602 11.0631 1.22702 11.8291 1.49902 12.5591C1.77202 13.2891 2.23802 13.9041 2.80502 14.2971C3.36802 14.6871 4.09702 14.8921 4.81502 14.6391C5.53602 14.3841 5.96702 13.7631 6.14502 13.1011C6.32402 12.4371 6.27402 11.6711 6.00102 10.9411C5.72802 10.2111 5.26202 9.59612 4.69502 9.20312ZM3.84202 10.4371C4.13002 10.6371 4.41802 10.9901 4.59602 11.4651C4.77302 11.9401 4.78402 12.3871 4.69602 12.7111C4.60902 13.0371 4.44902 13.1771 4.31502 13.2251C4.17702 13.2741 3.95002 13.2651 3.65802 13.0631C3.37002 12.8631 3.08202 12.5091 2.90402 12.0351C2.72702 11.5601 2.71602 11.1131 2.80402 10.7891C2.89102 10.4631 3.05102 10.3231 3.18502 10.2751C3.32302 10.2261 3.55002 10.2351 3.84202 10.4371ZM21.315 8.86012C20.597 8.60712 19.868 8.81412 19.305 9.20312C18.738 9.59612 18.272 10.2101 17.999 10.9411C17.727 11.6711 17.677 12.4371 17.855 13.1011C18.033 13.7631 18.464 14.3841 19.185 14.6391C19.903 14.8931 20.632 14.6861 21.195 14.2971C21.762 13.9041 22.228 13.2901 22.501 12.5591C22.774 11.8291 22.824 11.0631 22.645 10.3991C22.467 9.73712 22.036 9.11612 21.315 8.86112M19.405 11.4661C19.582 10.9911 19.87 10.6381 20.158 10.4381C20.45 10.2361 20.678 10.2281 20.815 10.2761C20.949 10.3231 21.109 10.4641 21.197 10.7901C21.284 11.1141 21.273 11.5601 21.096 12.0361C20.918 12.5101 20.63 12.8641 20.342 13.0641C20.05 13.2661 19.823 13.2741 19.685 13.2261C19.551 13.1791 19.391 13.0381 19.303 12.7121C19.216 12.3881 19.227 11.9421 19.404 11.4661" fill="white"/>
</svg>
