<svg width="24" height="24" viewBox="0 0 24 24" fill="none" xmlns="http://www.w3.org/2000/svg">
<path fill-rule="evenodd" clip-rule="evenodd" d="M22.53 1.47012C22.6705 1.61074 22.7493 1.80137 22.7493 2.00012C22.7493 2.19887 22.6705 2.38949 22.53 2.53012L2.53 22.5301C2.38783 22.6626 2.19978 22.7347 2.00548 22.7313C1.81118 22.7279 1.62579 22.6492 1.48838 22.5117C1.35097 22.3743 1.27225 22.1889 1.26883 21.9946C1.2654 21.8003 1.33752 21.6123 1.47 21.4701L5.191 17.7481C4.308 17.7381 3.636 17.6861 3.025 17.4031C2.297 17.0508 1.69433 16.4841 1.298 15.7791C0.906 15.0501 0.86 14.2891 0.794 13.2041L0.786 13.0741C0.763314 12.7166 0.751309 12.3584 0.75 12.0001C0.75 11.6591 0.764 11.2941 0.786 10.9261L0.794 10.7961C0.86 9.71212 0.906 8.95012 1.298 8.22012C1.69433 7.51513 2.297 6.9484 3.025 6.59612C3.777 6.24812 4.622 6.24812 5.839 6.24912H6C6.537 6.24912 6.72 6.24712 6.891 6.21812C7.07483 6.18663 7.25415 6.13291 7.425 6.05812C7.585 5.98812 7.739 5.88812 8.186 5.59312L8.453 5.41712C9.684 4.60612 10.671 3.95512 11.485 3.56012C12.311 3.15812 13.125 2.93512 13.942 3.21412C14.214 3.30712 14.476 3.44012 14.711 3.60512C15.351 4.05512 15.655 4.74012 15.827 5.52912C15.915 5.93112 15.975 6.39412 16.02 6.91812L21.47 1.46812C21.6106 1.32767 21.8012 1.24878 22 1.24878C22.1988 1.24878 22.3894 1.32767 22.53 1.46812M14.61 8.32712C14.553 7.22612 14.489 6.43312 14.361 5.84712C14.225 5.22312 14.044 4.96912 13.848 4.83212C13.7278 4.74788 13.5966 4.68058 13.458 4.63212C13.208 4.54812 12.852 4.56212 12.14 4.90812C11.426 5.25512 10.52 5.85012 9.231 6.70012L9.012 6.84412L8.962 6.87712C8.582 7.12712 8.319 7.30112 8.031 7.42912C7.74637 7.55419 7.44747 7.64386 7.141 7.69612C6.831 7.74812 6.515 7.74812 6.059 7.74812H6C4.556 7.74812 4.07 7.76412 3.655 7.95612C3.22152 8.17248 2.86124 8.51155 2.619 8.93112C2.401 9.33612 2.36 9.75112 2.283 11.0151C2.263 11.3621 2.25 11.6951 2.25 11.9981C2.25 12.3011 2.262 12.6341 2.283 12.9811C2.36 14.2451 2.401 14.6611 2.619 15.0651C2.828 15.4541 3.254 15.8551 3.655 16.0401C4.069 16.2321 4.556 16.2481 6 16.2481H6.06C6.299 16.2481 6.5 16.2481 6.682 16.2561L14.61 8.32712ZM20.265 6.31412C20.4463 6.23271 20.6525 6.22658 20.8383 6.29708C21.0241 6.36757 21.1743 6.50894 21.256 6.69012C21.724 7.72512 22.25 9.45812 22.25 11.9981C22.25 14.1901 21.858 15.7811 21.45 16.8421C21.294 17.2561 21.1026 17.656 20.878 18.0371C20.789 18.1836 20.6926 18.3255 20.589 18.4621L20.582 18.4721L20.579 18.4751L20.577 18.4771L20 18.0001L20.576 18.4801C20.4492 18.6334 20.2667 18.7301 20.0687 18.7488C19.8707 18.7676 19.6733 18.7069 19.52 18.5801C19.3667 18.4533 19.27 18.2709 19.2513 18.0728C19.2325 17.8748 19.2932 17.6774 19.42 17.5241L19.423 17.5201L19.454 17.4791C19.5026 17.4104 19.5483 17.3397 19.591 17.2671C19.711 17.0681 19.879 16.7511 20.05 16.3061C20.392 15.4171 20.75 14.0081 20.75 12.0001C20.75 9.67412 20.27 8.15112 19.89 7.30812C19.8082 7.12684 19.8018 6.9205 19.8721 6.73447C19.9424 6.54844 20.0837 6.39796 20.265 6.31612M18.164 9.26612C18.2605 9.24607 18.3599 9.24522 18.4567 9.26362C18.5535 9.28202 18.6457 9.31931 18.7281 9.37336C18.8104 9.42741 18.8814 9.49715 18.9368 9.57861C18.9922 9.66007 19.031 9.75165 19.051 9.84812C19.161 10.3781 19.25 11.0881 19.25 12.0001C19.25 13.1101 19.118 13.9231 18.977 14.4741C18.9234 14.6887 18.8555 14.8995 18.774 15.1051C18.7432 15.1825 18.7092 15.2586 18.672 15.3331L18.662 15.3511L18.659 15.3581L18.657 15.3611V15.3631C18.657 15.3631 18.656 15.3641 18.027 15.0151L18.656 15.3651C18.5605 15.5398 18.3996 15.6693 18.2086 15.7253C18.0176 15.7813 17.8121 15.7591 17.6375 15.6636C17.4629 15.5681 17.3333 15.4072 17.2773 15.2162C17.2213 15.0252 17.2435 14.8198 17.339 14.6451L17.344 14.6351L17.382 14.5481C17.4377 14.402 17.4848 14.2527 17.523 14.1011C17.633 13.6771 17.75 12.9901 17.75 12.0001C17.7578 11.38 17.7015 10.7607 17.582 10.1521C17.5418 9.95746 17.5805 9.75481 17.6897 9.58868C17.7988 9.42255 17.9694 9.30654 18.164 9.26612ZM15.5 11.2501C15.6989 11.2501 15.8897 11.3291 16.0303 11.4698C16.171 11.6104 16.25 11.8012 16.25 12.0001C16.25 12.5521 16.214 13.5251 16.162 14.6401L16.159 14.6981C16.091 16.1581 16.037 17.3301 15.878 18.2141C15.716 19.1141 15.417 19.8971 14.711 20.3941C14.4748 20.5605 14.2158 20.6918 13.942 20.7841C13.2 21.0381 12.462 20.8771 11.72 20.5491C10.988 20.2251 10.128 19.6811 9.089 19.0001C8.92258 18.8911 8.80627 18.7205 8.76567 18.5257C8.72507 18.331 8.7635 18.128 8.8725 17.9616C8.9815 17.7952 9.15215 17.6789 9.34691 17.6383C9.54167 17.5977 9.74458 17.6361 9.911 17.7451C10.97 18.4391 11.726 18.9111 12.327 19.1771C12.919 19.4391 13.232 19.4421 13.457 19.3651C13.595 19.3181 13.73 19.2501 13.848 19.1661C14.065 19.0141 14.263 18.7191 14.401 17.9481C14.541 17.1731 14.592 16.1011 14.664 14.5711C14.716 13.4511 14.75 12.5111 14.75 12.0001C14.75 11.8012 14.829 11.6104 14.9697 11.4698C15.1103 11.3291 15.3011 11.2501 15.5 11.2501Z" fill="white"/>
</svg>
