<svg width="54" height="106" viewBox="0 0 54 106" fill="none" xmlns="http://www.w3.org/2000/svg">
<path d="M13.7901 35.8313C13.9905 36.5867 14.1287 37.3148 14.2546 38.1423C14.2854 38.341 14.3146 38.5661 14.3362 38.7737C14.3362 38.7743 14.3363 38.775 14.3364 38.7756C14.3539 38.9414 14.37 39.1213 14.3826 39.2922C14.4852 40.7086 14.4765 42.4655 14.3253 45.058C14.15 47.9208 13.7884 50.1426 13.5291 51.4969C13.4796 51.7517 13.4398 52.0123 13.3528 52.6744C13.2958 53.1056 13.2204 53.6913 13.105 54.5408C13.0692 54.8027 13.0262 55.117 12.9819 55.4351C12.9513 55.6559 12.9172 55.8868 12.8804 56.1293C12.7904 56.7351 12.6701 57.4605 12.604 58.1573C12.5982 58.2237 12.5943 58.2705 12.5906 58.319C12.5884 58.3482 12.587 58.3693 12.5867 58.3755C12.5857 58.3774 12.5891 58.388 12.5849 58.295C12.5841 58.2821 12.5829 58.2666 12.5807 58.2462C12.5796 58.2359 12.5782 58.2245 12.5764 58.2112C12.578 58.224 12.5694 58.1518 12.5493 58.078C12.5209 57.9963 12.5117 57.8773 12.3128 57.6287C12.2112 57.5094 12.0247 57.3451 11.7432 57.2684C11.4633 57.1873 11.1508 57.2423 10.9677 57.3309C10.5965 57.52 10.5424 57.674 10.478 57.7547C10.3777 57.9202 10.3766 57.9593 10.3602 57.9986C10.3524 58.022 10.3533 58.0199 10.3506 58.0286C10.3428 58.0543 10.3404 58.0648 10.3389 58.0707C10.3423 58.058 10.3751 57.8883 10.3938 57.7881C10.4387 57.5499 10.4825 57.317 10.5314 57.0656C10.6264 56.5767 10.7301 56.0701 10.8416 55.5561C11.0624 54.5375 11.3148 53.4893 11.5857 52.4769C12.0535 50.7207 12.5818 49.0783 13.0321 47.844C13.5113 46.5277 14.0337 45.2686 14.646 43.9826C14.8786 43.4946 15.1261 43.0091 15.3965 42.5202C16.3144 40.8773 17.4776 39.1311 19.3078 37.5373C20.5023 36.4968 21.8782 35.7586 23.234 35.1775C23.5008 35.0599 23.774 34.9627 24.0492 34.8844C24.2873 34.8165 24.5274 34.7625 24.7668 34.7205C26.3595 34.4416 27.8966 34.6798 29.4243 34.7416C29.4368 34.7432 29.4446 34.7411 29.4103 34.7481C29.3885 34.7539 29.3644 34.7565 29.2966 34.7908C29.219 34.8308 29.085 34.9339 29.0334 35.1243C28.9826 35.4012 29.0577 35.442 29.0701 35.4882C29.0869 35.5173 29.0927 35.5213 29.0925 35.5203C29.0926 35.5178 29.0708 35.4919 29.0514 35.4714C29.0046 35.422 28.9435 35.3652 28.8852 35.3124C28.76 35.1997 28.6271 35.0867 28.4941 34.9734C28.228 34.7473 27.9619 34.5213 27.7048 34.2951C27.1885 33.8418 26.7034 33.3862 26.2468 32.9165C25.3331 31.9748 24.526 30.9815 23.8255 29.8326C23.8137 29.8133 23.802 29.7938 23.7903 29.7743C23.2314 28.8336 22.8315 27.7904 22.5168 26.6487C22.0076 24.8419 21.6704 22.1834 21.5835 19.5348C21.5754 19.3094 21.5684 19.0803 21.563 18.8563C21.5629 18.8551 21.5629 18.854 21.5629 18.8529C21.5037 16.4277 21.6021 14.0518 21.6976 12.3162C21.8584 9.55436 21.9499 8.51589 22.0047 7.65379C22.0285 7.3205 22.0491 7.03478 22.0824 6.66799C22.2014 5.36577 22.4413 3.45045 22.7816 1.46697C22.7828 1.45993 22.784 1.45294 22.7852 1.44599C22.844 1.10629 22.9955 0.850026 23.1099 0.88912C23.2279 0.903965 23.2679 1.18941 23.2099 1.5246C23.0298 2.56316 22.8843 3.56753 22.7645 4.47892C22.86 4.53832 22.9052 4.78584 22.866 5.08784C22.7757 5.81917 22.5478 8.06995 22.4281 11.6026C22.4631 11.3621 22.4956 11.1641 22.5259 10.9888C22.5617 10.7802 22.5915 10.6219 22.6171 10.4864C22.6709 10.2029 22.7062 10.0233 22.7507 9.68203C22.8342 8.91108 22.9554 7.67937 23.1084 6.39829C23.146 6.08192 23.2754 5.82427 23.3934 5.84081C23.5116 5.85637 23.5739 6.13833 23.5365 6.45362C23.5358 6.45989 23.5351 6.46617 23.5343 6.47245C23.3834 7.7375 23.2591 8.99993 23.1723 9.80599C23.1496 10.0164 23.1299 10.1879 23.1141 10.3209C23.1016 10.4266 23.0856 10.5592 23.0729 10.6328C23.0712 10.6426 23.0679 10.6612 23.0633 10.6834C23.0632 10.6838 23.0631 10.6842 23.063 10.6845C23.0604 10.6969 23.0474 10.7603 23.0247 10.8276C23.0202 10.8411 23.01 10.8706 22.9946 10.9047C22.993 10.9137 22.9913 10.9226 22.9897 10.9316C22.9665 11.058 22.9435 11.1814 22.9203 11.3179C22.8318 11.8506 22.6972 12.7041 22.5583 14.4811C22.4432 16.1137 22.3133 18.9017 22.6458 22.3368C22.6313 22.1047 22.6187 21.8738 22.6074 21.6397C22.5788 21.0461 22.5617 20.4632 22.553 19.8704C22.5498 19.6451 22.548 19.4218 22.5473 19.1936C22.5462 18.825 22.5487 18.4616 22.5541 18.093C22.5577 17.844 22.5628 17.5963 22.5692 17.3481C22.5692 17.3476 22.5692 17.347 22.5692 17.3464C22.5782 17.002 22.5899 16.6561 22.6045 16.3082C22.6098 16.1864 22.6152 16.0661 22.6208 15.9467C22.6433 15.4723 22.6693 15.0027 22.7149 14.4678C22.7216 14.403 22.7299 14.3317 22.7366 14.2787C22.7438 14.2217 22.751 14.1669 22.7582 14.1152C22.7645 14.0695 22.7709 14.026 22.7769 13.9844C22.7777 13.9788 22.7785 13.9732 22.7793 13.9676C22.786 13.921 22.7924 13.8765 22.7984 13.8337C22.8044 13.791 22.8103 13.7499 22.8156 13.7094C22.8156 13.709 22.8156 13.7086 22.8156 13.7083C22.8211 13.666 22.8253 13.6339 22.8304 13.5891C22.8369 13.5328 22.8422 13.4845 22.848 13.4261C22.8536 13.3694 22.859 13.3108 22.8643 13.2508C22.8696 13.1905 22.8747 13.1291 22.8797 13.0669C22.8848 13.0047 22.8898 12.9415 22.8948 12.8779C22.8997 12.8143 22.9046 12.75 22.9096 12.6854C22.9145 12.6208 22.9196 12.5556 22.9247 12.4901C22.9365 12.339 22.9692 12.1982 23.0165 12.0929C23.0639 11.9881 23.1214 11.9322 23.1768 11.9364C23.2323 11.9408 23.2816 12.0051 23.3147 12.1157C23.3478 12.2268 23.3622 12.3704 23.3553 12.5211C23.3534 12.5621 23.3516 12.6033 23.3498 12.6446C23.3487 12.6692 23.3475 12.694 23.3464 12.7187C23.3434 12.7852 23.3405 12.8524 23.3374 12.9201C23.3343 12.9878 23.3311 13.0562 23.3277 13.1254C23.3243 13.1947 23.3207 13.266 23.3169 13.3362C23.313 13.4066 23.3088 13.4786 23.304 13.5518C23.2994 13.6232 23.2935 13.7048 23.2876 13.7778C23.2834 13.8311 23.2773 13.8969 23.2721 13.9518C23.2667 14.0091 23.261 14.0655 23.2553 14.1199C23.2497 14.1744 23.2439 14.2272 23.2385 14.2776C23.2379 14.283 23.2373 14.2884 23.2368 14.2938C23.232 14.3383 23.2274 14.3814 23.2232 14.4221C23.2186 14.4672 23.2145 14.51 23.2109 14.5506C23.2069 14.5954 23.205 14.6226 23.2027 14.6561C23.1803 15.0981 23.167 15.6477 23.1605 16.1691C23.1597 16.2347 23.1589 16.2999 23.1582 16.3645C23.155 16.7071 23.1545 17.0497 23.1566 17.3909C23.1582 17.6389 23.1612 17.8867 23.1656 18.1359C23.1721 18.5029 23.1816 18.8647 23.1946 19.2332C23.2027 19.4608 23.2118 19.6832 23.2224 19.9081C23.2504 20.501 23.2871 21.0847 23.3356 21.6784C23.3831 22.261 23.4429 22.8561 23.5152 23.4391C23.5874 24.0232 23.6772 24.6298 23.777 25.1959C23.8537 25.6299 23.9289 26.0418 24.017 26.4479C24.0634 26.6624 24.1092 26.8606 24.1615 27.0651C24.1616 27.0658 24.1618 27.0665 24.1619 27.0672C24.2081 27.2475 24.2561 27.4214 24.3066 27.5896C24.4148 27.9505 24.5421 28.3061 24.6887 28.6421C24.7701 28.8282 24.8559 29.0056 24.9464 29.1743C25.0293 29.3277 25.1131 29.475 25.2031 29.6249C25.3961 29.9469 25.6115 30.2692 25.8366 30.5744C26.0642 30.8833 26.3018 31.1773 26.5631 31.4745C26.9081 31.8663 27.2729 32.2383 27.6633 32.6034C28.0494 32.9647 28.4594 33.3155 28.8828 33.6582C29.0281 33.7759 29.1819 33.8987 29.3329 34.0189C29.3335 34.0194 29.3341 34.0198 29.3346 34.0203C29.4792 34.1358 29.6193 34.2465 29.7713 34.3752C29.8531 34.4455 29.928 34.5093 30.0249 34.6096C30.0746 34.6639 30.1334 34.7207 30.212 34.8544C30.2365 34.8978 30.2653 34.956 30.2883 35.031C30.308 35.1004 30.3399 35.2128 30.3135 35.3889C30.2562 35.771 29.9214 35.9594 29.8193 35.9912C29.581 36.072 29.5227 36.0524 29.4243 36.0588C28.8879 36.0636 28.3698 36.0459 27.8615 36.0393C27.3101 36.0316 26.7687 36.0352 26.2414 36.0778C25.7142 36.12 25.1903 36.2032 24.696 36.3497C24.441 36.4252 24.1936 36.5186 23.9583 36.6309C23.7639 36.7242 23.5713 36.8186 23.3831 36.9139C23.2652 36.9736 23.1481 37.034 23.0318 37.0956C22.4804 37.3874 21.9677 37.6942 21.4864 38.0343C21.0073 38.3725 20.5545 38.7473 20.1305 39.1583C19.7059 39.5697 19.3114 40.0151 18.9413 40.4941C18.5694 40.9756 18.2352 41.4727 17.919 42.0003C17.6056 42.5236 17.3167 43.0675 17.0469 43.6308C16.8958 43.9456 16.7408 44.284 16.6021 44.6009C16.5673 44.6801 16.5326 44.76 16.498 44.8406C16.3914 45.0886 16.288 45.3349 16.1876 45.5793C16.1333 45.7114 16.0799 45.8429 16.0277 45.9734C15.9517 46.1635 15.8775 46.3527 15.8057 46.5403C15.685 46.8555 15.571 47.166 15.4654 47.4682C15.3608 47.7678 15.2613 48.0684 15.1736 48.3526C15.081 48.6521 15.0111 48.8968 14.9322 49.1944C14.7305 49.9146 14.6034 50.3561 14.4632 50.8544C14.4359 50.952 14.4093 51.0491 14.3806 51.1542C14.2162 51.7503 14.0579 52.3453 13.9079 52.9327C13.7551 53.5305 13.6115 54.1169 13.4722 54.7106C13.3344 55.2977 13.1996 55.8985 13.0731 56.4907C12.9456 57.0864 12.8275 57.6746 12.7081 58.2817C12.6961 58.3427 12.686 58.3929 12.6752 58.4452C12.6682 58.4796 12.6617 58.511 12.655 58.5416C12.6459 58.573 12.6531 58.5851 12.5927 58.7719C12.5729 58.82 12.5658 58.87 12.4621 59.0374C12.3991 59.1204 12.3353 59.2611 12.0184 59.4456C11.8609 59.5324 11.6032 59.6149 11.3194 59.5845C11.0353 59.5582 10.7856 59.4191 10.6431 59.2914C10.3576 59.024 10.3304 58.859 10.2881 58.7586C10.2548 58.6564 10.2464 58.5999 10.239 58.5551C10.2345 58.5248 10.2346 58.5233 10.2329 58.5094C10.2278 58.4642 10.2265 58.4357 10.2255 58.4121C10.2239 58.366 10.2246 58.34 10.2251 58.3163C10.2267 58.264 10.2279 58.2534 10.229 58.2355C10.2312 58.2016 10.234 58.1672 10.2371 58.1295C10.2415 58.0805 10.2467 58.0249 10.2528 57.9607C10.2986 57.4991 10.3631 57.087 10.4261 56.6836C10.4815 56.3323 10.5436 55.9655 10.5992 55.6292C10.6266 55.4637 10.6532 55.3004 10.6782 55.1414C10.6896 55.0689 10.7013 54.9942 10.7132 54.9175C10.729 54.8149 10.7432 54.7251 10.7581 54.6288C10.8096 54.2945 10.8571 53.9829 10.9023 53.6677C10.9462 53.3628 10.9869 53.0625 11.0234 52.7661C11.0592 52.4762 11.0915 52.1842 11.1195 51.8978C11.1488 51.5959 11.1698 51.3496 11.1926 51.0325C11.2071 50.827 11.2214 50.6203 11.2344 50.4207C11.2545 50.1164 11.2727 49.8193 11.2902 49.5138C11.3071 49.2143 11.3229 48.9127 11.3367 48.6147C11.3411 48.5184 11.3458 48.4162 11.3499 48.3192C11.3625 48.0224 11.3736 47.7253 11.3823 47.4317C11.3911 47.1373 11.3977 46.8468 11.402 46.5568C11.4063 46.2657 11.4082 45.9805 11.4075 45.689C11.4062 45.195 11.4148 44.723 11.4213 44.311C11.428 43.8945 11.4338 43.506 11.4354 43.1294C11.4357 43.0589 11.4358 42.9901 11.4358 42.9184C11.4358 42.6132 11.4331 42.317 11.4263 42.0254C11.4178 41.6663 11.4035 41.3151 11.3814 40.967C11.3596 40.6218 11.3297 40.2741 11.2904 39.9448C11.25 39.605 11.2029 39.2932 11.1375 38.9691C11.1209 38.8871 11.1034 38.8076 11.0851 38.7306C11.0245 38.4683 10.9574 38.1953 10.883 37.9131C10.7836 37.5354 10.6727 37.1447 10.5529 36.7551C10.4333 36.366 10.3041 35.9761 10.1674 35.5967C10.0306 35.2165 9.88426 34.8415 9.72971 34.4786C9.57419 34.1134 9.40995 33.7591 9.23488 33.4139C9.06034 33.0694 8.86765 32.7224 8.67623 32.4069C8.36632 31.8953 8.02464 31.4091 7.65063 30.952C7.27849 30.497 6.87236 30.0687 6.4363 29.6726C6.04762 29.3193 5.63411 28.9905 5.19889 28.6872C5.14374 28.6488 5.08932 28.6113 5.03531 28.5745C4.53441 28.2304 4.05684 27.9569 3.7141 27.8532C3.63905 27.8297 3.57173 27.8137 3.51279 27.8039C3.37244 27.7817 3.28705 27.7868 3.18491 27.8129C3.27821 27.7805 3.31807 27.7517 3.37299 27.7006C3.37411 27.6995 3.37524 27.6984 3.37637 27.6972C3.41584 27.6539 3.47009 27.6081 3.54628 27.4283C3.5817 27.3371 3.6258 27.2015 3.62601 26.9921C3.62888 26.7866 3.55634 26.4936 3.40422 26.2729C3.48915 26.4111 3.68777 26.627 3.90755 26.8033C4.03798 26.909 4.17408 27.0044 4.31749 27.0916C4.46134 27.1789 4.6079 27.2549 4.75811 27.3203C4.84988 27.3603 4.94216 27.3957 5.034 27.4265C5.05084 27.4323 5.08179 27.4412 5.1232 27.45C5.22336 27.4715 5.37417 27.4886 5.53738 27.4932C5.68679 27.4976 5.84602 27.4938 6.03366 27.4808C6.05146 27.4796 6.067 27.4784 6.08358 27.4772C6.28283 27.462 6.51982 27.4351 6.74952 27.4024C7.345 27.3181 7.94445 27.1793 8.54558 26.9993C9.1476 26.8185 9.74242 26.5978 10.3251 26.3415C10.5507 26.2422 10.78 26.1348 11.0015 26.0246C11.3496 25.8515 11.6912 25.6659 12.024 25.4683C12.5727 25.1425 13.0984 24.7843 13.5923 24.3927C14.0843 24.0028 14.5445 23.579 14.9545 23.1276C15.3644 22.6766 15.7285 22.1918 16.0269 21.6871C16.27 21.2763 16.4705 20.8516 16.6265 20.409C16.6947 20.2131 16.7638 20.0136 16.8338 19.8106C17.0882 19.0732 17.341 18.3312 17.5909 17.59C17.8416 16.8461 18.0882 16.1071 18.3344 15.3628C18.5803 14.6191 18.8238 13.8761 19.0658 13.131C19.2105 12.6853 19.3549 12.2385 19.4978 11.7933C19.5583 11.5523 19.6159 11.3207 19.6708 11.0996C20.0774 9.45811 20.3648 8.26835 20.7556 6.71519C20.7914 6.56477 20.8177 6.43971 20.8486 6.29151C20.8545 6.26318 20.8609 6.23324 20.8672 6.20278C20.906 6.01492 20.9571 5.7791 21.0291 5.47806C21.1751 4.86319 21.4311 3.92211 21.8004 2.75685C21.8926 2.46369 22.0434 2.29828 22.1442 2.38636C22.2139 2.452 22.2407 2.61866 22.2159 2.82119C22.3078 2.47447 22.4026 2.09737 22.4705 1.76878C22.4964 1.64598 22.5389 1.52313 22.5858 1.46664C22.6335 1.40036 22.6861 1.40463 22.7421 1.40358C22.7972 1.40472 22.8515 1.42483 22.8798 1.52863C22.9098 1.61451 22.9104 1.76026 22.8855 1.90126C22.8187 2.27828 22.733 2.66201 22.6413 3.05732C22.5536 3.43356 22.4551 3.8351 22.3594 4.21567C22.2598 4.61137 22.1603 4.99772 22.06 5.38147C21.9569 5.77594 21.8543 6.16217 21.751 6.54734C21.6449 6.94283 21.5423 7.32213 21.435 7.71473C21.3721 7.94511 21.3053 8.1881 21.242 8.41732C21.2183 8.50318 21.1952 8.5874 21.1718 8.67198C21.1527 8.74112 21.1333 8.81082 21.1132 8.88283C20.9052 9.63251 20.691 10.393 20.4773 11.1438C20.2628 11.8968 20.0453 12.6516 19.8263 13.4037C19.607 14.1566 19.3858 14.9083 19.1623 15.6597C18.9384 16.4119 18.7134 17.1602 18.4849 17.9108C18.2568 18.66 18.0256 19.4102 17.7926 20.1551C17.7315 20.3504 17.6713 20.5422 17.612 20.7304C17.4982 21.092 17.3595 21.4424 17.1969 21.7837C17.1082 21.9898 17.0117 22.1899 16.9086 22.3844C16.6085 22.9505 16.2502 23.4942 15.8486 23.9986C16.598 23.1314 17.0556 22.3281 17.3812 21.534C17.4245 21.4274 17.4658 21.3194 17.5039 21.213C17.5593 21.0585 17.6099 20.9029 17.6561 20.7448C17.9511 19.7407 18.2532 18.7199 18.6666 17.4158C20.0301 13.0977 20.7642 10.5741 21.2392 9.0107C21.7125 7.44081 21.9335 6.77543 22.1831 6.16351C22.5366 5.29946 23.047 3.57955 23.2312 2.70534C23.3012 2.38429 23.4436 2.14328 23.5603 2.168C23.678 2.18749 23.7238 2.47359 23.6523 2.80139C23.4539 3.74266 22.9027 5.60585 22.4788 6.63675C22.2896 7.09853 22.1071 7.62905 21.6399 9.17839C21.1709 10.7208 20.4434 13.2232 19.0756 17.5552C18.664 18.8531 18.3672 19.8594 18.068 20.8792C18.029 21.0121 17.9868 21.1439 17.9413 21.2752C17.9025 21.3872 17.8612 21.4992 17.8167 21.612C17.8164 21.6127 17.8161 21.6134 17.8158 21.6141C17.4036 22.6453 16.7733 23.7273 15.6032 24.8909C12.9304 27.7058 7.84133 29.2365 6.61967 29.2831C6.37527 29.318 6.14708 29.3447 5.8946 29.3614C5.48693 29.3809 5.03507 29.4122 4.42989 29.2453C3.69638 28.9989 2.69194 28.6318 1.73823 27.3802C1.70234 27.3269 1.67348 27.2673 1.65397 27.2052C1.54683 26.7965 1.73825 26.525 1.90448 26.3238C2.08473 26.1217 2.31232 25.9661 2.59364 25.8771C2.84853 25.7977 3.1275 25.7545 3.41144 25.757C4.66777 25.7375 5.64194 26.3783 6.41023 26.8396C6.42091 26.8463 6.43158 26.853 6.44223 26.8597C7.10615 27.278 7.7043 27.6976 8.2609 28.1422C8.42416 28.2728 8.58475 28.4061 8.74397 28.5448C9.12628 28.8773 9.49195 29.2322 9.82477 29.6022C10.0894 29.8962 10.359 30.2142 10.6279 30.5622C11.6046 31.8241 12.6038 33.5383 13.2403 35.927C13.4553 36.7309 13.6165 37.5076 13.7477 38.2364C14.0308 39.9113 14.0149 41.3345 14.0001 42.6199C14.0357 41.2368 14.0164 40.1489 13.9427 39.2232C13.9286 39.048 13.9117 38.8743 13.8937 38.7148C13.8743 38.5431 13.852 38.3764 13.8283 38.2215C13.698 37.3629 13.5656 36.6708 13.3747 35.9492C12.2302 31.8966 11.0699 30.5446 9.89784 29.1887C9.57234 28.8372 9.1907 28.4689 8.75751 28.1011C8.14499 27.5805 7.42926 27.063 6.63161 26.5813C6.31291 26.3897 5.97588 26.1908 5.60655 26.002C4.8368 25.6097 3.6904 25.1668 2.5043 25.5847C2.17638 25.699 1.90845 25.8859 1.68637 26.1529C1.57675 26.2892 1.47447 26.4463 1.40876 26.6688C1.3428 26.8802 1.33115 27.2365 1.53084 27.518C1.5494 27.5435 1.56863 27.5691 1.58804 27.5942C1.58844 27.5947 1.58883 27.5953 1.58922 27.5958C1.79795 27.8636 2.02987 28.0867 2.27629 28.2894C2.89492 28.7928 3.60959 29.1674 4.38228 29.3886C5.59881 29.676 6.67125 29.4335 7.71759 29.2095C7.90898 29.1644 8.13079 29.1068 8.38917 29.0317C9.85324 28.5943 12.42 27.6612 14.9997 25.6189C15.5604 25.1664 16.1257 24.6665 16.6988 24.018C16.8729 23.8203 17.0471 23.6083 17.2191 23.3783C17.6776 22.7627 18.1422 22.0054 18.4937 21.0181C18.696 20.4489 18.9166 19.8101 19.1496 19.1133C19.6575 17.5944 20.2467 15.7284 20.8399 13.7895C21.1323 12.8342 21.4264 11.8599 21.7133 10.8986C22.5719 7.9888 23.3797 5.34496 24.0119 2.5975C24.012 2.59696 24.0121 2.59641 24.0122 2.59586C24.0847 2.26347 24.2258 2.01095 24.3417 2.04001C24.4578 2.07098 24.5008 2.38742 24.427 2.7224C23.7826 5.50862 22.9798 8.13257 22.1217 11.0404C21.8386 11.9884 21.5466 12.9563 21.255 13.909C20.6581 15.8598 20.0603 17.7533 19.5464 19.2894C19.32 19.9661 19.1035 20.5936 18.9052 21.1523C18.518 22.2445 18 23.0695 17.4962 23.7312C17.3046 23.9816 17.1144 24.2069 16.9274 24.414C16.3302 25.0716 15.7767 25.5497 15.2269 25.9907C12.6449 28.0168 10.1375 28.9485 8.63182 29.4126C8.35822 29.4943 8.12774 29.5563 7.91564 29.6077C6.7997 29.8467 5.69601 30.1417 4.24494 29.8021C3.48096 29.5812 2.7766 29.2233 2.14769 28.7437C1.87965 28.5374 1.62573 28.31 1.38596 28.035C1.38544 28.0345 1.38493 28.0339 1.38441 28.0334C1.31026 27.9479 1.23779 27.8577 1.16719 27.7597C0.876034 27.3446 0.899649 26.826 0.991333 26.541C1.08291 26.2379 1.21702 26.0392 1.35587 25.8678C1.63736 25.5342 1.96423 25.309 2.37682 25.1673C3.65943 24.7211 4.89405 25.1654 5.67838 25.5523C6.13212 25.7758 6.51956 26.0057 6.87751 26.2199C7.57872 26.6432 8.2076 27.0837 8.78044 27.5475C9.24902 27.9271 9.68167 28.3247 10.0802 28.7437C11.3837 30.2021 12.6231 31.6906 13.7901 35.8313ZM22.0641 3.38318C21.8326 4.11902 21.6617 4.73048 21.546 5.18703C21.6583 4.80709 21.7712 4.42021 21.8813 4.03359C21.9408 3.82651 22.0069 3.58918 22.0641 3.38318ZM3.50213 26.1912C3.37664 26.1921 3.25097 26.2028 3.12727 26.224C3.47097 26.181 3.82332 26.2223 4.15942 26.3173C4.57324 26.434 4.96576 26.6254 5.34146 26.8407C4.74984 26.4918 4.12061 26.2182 3.50213 26.1912ZM12.8245 36.044C12.2317 33.8331 11.3641 32.2921 10.4464 31.0521C10.1809 30.6949 9.90821 30.3607 9.62799 30.0405C9.51203 29.9081 9.39303 29.779 9.26942 29.6507C9.92278 30.4486 10.4266 31.2522 10.7933 31.9298C11.8673 33.971 12.1468 35.2664 12.4159 36.3666C12.4893 36.6894 12.5524 36.9962 12.6139 37.3143C12.6849 37.5704 12.755 37.8409 12.8199 38.111C12.8427 38.2056 12.8651 38.3009 12.8871 38.3961C12.9557 38.6931 13.0133 39.0109 13.0591 39.318C13.1193 39.7184 13.1648 40.1394 13.1974 40.5381C13.2307 40.9491 13.2524 41.35 13.2666 41.7537C13.2799 42.1312 13.2862 42.5087 13.2883 42.8732C13.2884 42.8942 13.2885 42.9152 13.2886 42.9363C13.2904 43.3199 13.2873 43.6955 13.2848 44.0391C13.2822 44.3896 13.2805 44.6804 13.2845 44.9386C13.2894 45.2611 13.2909 45.5925 13.2892 45.9198C13.2876 46.2477 13.2829 46.5734 13.2755 46.8987C13.2681 47.2239 13.2582 47.5474 13.2461 47.8694C13.2422 47.9741 13.2378 48.0837 13.2335 48.1872C13.2315 48.2349 13.2295 48.2825 13.2274 48.33C13.2821 47.6997 13.3344 47.0468 13.3818 46.369C13.4498 45.3903 13.5176 44.3437 13.554 43.1822C13.5854 41.7646 13.6339 40.1923 13.3232 38.3152C13.1943 37.5996 13.0363 36.8367 12.8245 36.044ZM12.1674 57.8049C12.195 57.5443 12.243 57.1546 12.311 56.645C12.3269 56.5245 12.3438 56.397 12.3616 56.2631C12.3611 56.2662 12.3606 56.2695 12.3601 56.2726C12.3023 56.6025 12.2491 56.9053 12.1967 57.2296C12.1482 57.5317 12.1028 57.8304 12.0717 58.1128C12.0631 58.1981 12.058 58.2381 12.0512 58.3153C12.0498 58.3302 12.0487 58.3421 12.048 58.3499C12.0475 58.3554 12.0472 58.3624 12.0471 58.3571C12.0426 58.3327 12.0612 58.402 12.0293 58.225C12.0098 58.1778 12.021 58.1027 11.8537 57.9296C11.7708 57.8463 11.5834 57.7533 11.4028 57.7698C11.2226 57.7831 11.1116 57.8614 11.0512 57.9115C10.8481 58.1182 10.8996 58.1305 10.8751 58.1633C10.8652 58.1922 10.8695 58.1803 10.8673 58.1873C10.8654 58.1939 10.8646 58.1973 10.8642 58.1992C10.8635 58.2027 10.8645 58.1999 10.8659 58.1941C10.8701 58.1771 10.8714 58.1722 10.8749 58.1571C10.9033 58.0307 10.9295 57.9022 10.9598 57.756C11.0769 57.1902 11.202 56.6041 11.3311 56.0333C11.4606 55.4593 11.5981 54.8775 11.7376 54.3124C11.8784 53.7418 12.0253 53.1717 12.1771 52.6042C12.2263 52.4203 12.2738 52.2446 12.3243 52.0605C12.2005 52.4624 12.0788 52.8793 11.954 53.3256C11.8555 53.6779 11.7553 54.0478 11.6516 54.4417C11.612 54.5922 11.5649 54.7679 11.5088 54.9835C11.4079 55.3699 11.2804 55.8737 11.146 56.4702C11.077 56.7771 11.0098 57.0898 10.9387 57.4451C10.9031 57.6224 10.8681 57.8037 10.8329 57.9856C10.8232 58.036 10.8175 58.0653 10.8066 58.1195C10.8019 58.1426 10.7989 58.157 10.7952 58.1735C10.7931 58.1829 10.7917 58.1877 10.7944 58.1776C10.7951 58.1749 10.7962 58.1711 10.7978 58.1656C10.7987 58.1628 10.7997 58.1596 10.8009 58.1557C10.8008 58.1567 10.8033 58.1465 10.8154 58.1161C10.8331 58.0836 10.8287 58.0479 10.9476 57.9099C11.0096 57.8492 11.1451 57.7032 11.4446 57.6959C11.753 57.6954 11.9517 57.9067 12.0073 57.9989C12.1254 58.1992 12.1019 58.2451 12.1129 58.2744C12.1147 58.2875 12.1158 58.2977 12.1166 58.3061C12.1181 58.3229 12.1185 58.3331 12.1188 58.3407C12.119 58.3851 12.1215 58.3076 12.1255 58.2634C12.1285 58.2247 12.1324 58.1763 12.1372 58.1183C12.1455 58.0179 12.1559 57.9128 12.1674 57.8049ZM13.6605 47.5459C13.7055 47.4165 13.7512 47.2876 13.7975 47.16C13.9278 46.8004 14.0634 46.4468 14.1985 46.1079C14.2938 45.8689 14.3917 45.6304 14.4884 45.3999C14.5294 45.3022 14.5708 45.2044 14.6122 45.1076C14.6817 44.9451 14.751 44.7851 14.8208 44.6265C14.3107 45.7322 13.8598 46.8314 13.4362 47.9959C13.4306 48.0113 13.4251 48.0268 13.4195 48.0423C13.5011 47.8716 13.5815 47.7063 13.6605 47.5459Z" fill="#2A2A2A"/>
<path d="M36.792 67.9615C36.9924 68.7169 37.1306 69.445 37.2566 70.2725C37.2873 70.4712 37.3165 70.6962 37.3381 70.9039C37.3382 70.9045 37.3383 70.9052 37.3384 70.9058C37.3558 71.0716 37.372 71.2515 37.3846 71.4224C37.4872 72.8387 37.4785 74.5956 37.3273 77.1882C37.152 80.051 36.7904 82.2728 36.531 83.6271C36.4815 83.8819 36.4418 84.1425 36.3547 84.8046C36.2977 85.2358 36.2224 85.8215 36.1069 86.671C36.0712 86.9329 36.0281 87.2472 35.9839 87.5653C35.9533 87.7861 35.9191 88.017 35.8824 88.2595C35.7924 88.8653 35.6721 89.5907 35.6059 90.2875C35.6002 90.3539 35.5962 90.4007 35.5925 90.4492C35.5903 90.4784 35.589 90.4995 35.5886 90.5057C35.5877 90.5075 35.5911 90.5182 35.5868 90.4252C35.586 90.4123 35.5849 90.3968 35.5827 90.3764C35.5816 90.3661 35.5802 90.3546 35.5783 90.3414C35.5799 90.3541 35.5714 90.2819 35.5513 90.2081C35.5228 90.1265 35.5137 90.0074 35.3147 89.7589C35.2132 89.6396 35.0267 89.4753 34.7452 89.3986C34.4652 89.3175 34.1527 89.3725 33.9696 89.4611C33.5984 89.6502 33.5443 89.8042 33.48 89.8849C33.3797 90.0504 33.3785 90.0895 33.3622 90.1288C33.3544 90.1522 33.3553 90.15 33.3525 90.1588C33.3448 90.1845 33.3423 90.195 33.3408 90.2009C33.3443 90.1882 33.377 90.0185 33.3958 89.9183C33.4406 89.68 33.4845 89.4472 33.5334 89.1958C33.6284 88.7069 33.732 88.2002 33.8435 87.6863C34.0644 86.6676 34.3168 85.6195 34.5876 84.6071C35.0555 82.8509 35.5837 81.2085 36.034 79.9742C36.5132 78.6579 37.0357 77.3988 37.6479 76.1127C37.8805 75.6248 38.1281 75.1392 38.3985 74.6504C39.3163 73.0075 40.4795 71.2613 42.3097 69.6674C43.5043 68.627 44.8802 67.8888 46.236 67.3077C46.5027 67.1901 46.7759 67.0929 47.0512 67.0146C47.2893 66.9467 47.5294 66.8927 47.7688 66.8507C49.3615 66.5718 50.8986 66.81 52.4263 66.8718C52.4388 66.8734 52.4465 66.8713 52.4123 66.8783C52.3904 66.8841 52.3663 66.8867 52.2985 66.921C52.221 66.9609 52.087 67.0641 52.0354 67.2545C51.9846 67.5313 52.0596 67.5722 52.072 67.6183C52.0888 67.6475 52.0946 67.6514 52.0944 67.6505C52.0946 67.648 52.0728 67.6221 52.0533 67.6015C52.0065 67.5522 51.9455 67.4954 51.8871 67.4425C51.762 67.3299 51.629 67.2169 51.4961 67.1036C51.23 66.8775 50.9639 66.6515 50.7067 66.4253C50.1905 65.972 49.7054 65.5164 49.2488 65.0467C48.335 64.105 47.528 63.1117 46.8274 61.9628C46.8157 61.9435 46.8039 61.924 46.7923 61.9045C46.2333 60.9638 45.8335 59.9205 45.5187 58.7789C45.0096 56.9721 44.6724 54.3136 44.5855 51.665C44.5773 51.4395 44.5703 51.2105 44.5649 50.9865C44.5649 50.9853 44.5649 50.9842 44.5648 50.983C44.5056 48.5579 44.604 46.182 44.6996 44.4464C44.8603 41.6846 44.9518 40.6461 45.0067 39.784C45.0304 39.4507 45.051 39.165 45.0843 38.7982C45.2033 37.496 45.4433 35.5806 45.7836 33.5972C45.7848 33.5901 45.786 33.5831 45.7872 33.5762C45.8459 33.2365 45.9975 32.9802 46.1118 33.0193C46.2298 33.0342 46.2699 33.3196 46.2119 33.6548C46.0317 34.6933 45.8862 35.6977 45.7665 36.6091C45.8619 36.6685 45.9072 36.916 45.8679 37.218C45.7776 37.9494 45.5497 40.2001 45.43 43.7328C45.4651 43.4923 45.4976 43.2943 45.5279 43.119C45.5637 42.9104 45.5934 42.7521 45.6191 42.6166C45.6728 42.3331 45.7081 42.1535 45.7527 41.8122C45.8361 41.0413 45.9574 39.8096 46.1103 38.5285C46.1479 38.2121 46.2773 37.9545 46.3953 37.971C46.5136 37.9866 46.5759 38.2685 46.5385 38.5838C46.5377 38.5901 46.537 38.5964 46.5363 38.6026C46.3854 39.8677 46.2611 41.1301 46.1742 41.9362C46.1515 42.1465 46.1319 42.3181 46.1161 42.4511C46.1035 42.5568 46.0876 42.6894 46.0748 42.763C46.0731 42.7728 46.0698 42.7914 46.0652 42.8136C46.0651 42.814 46.065 42.8144 46.0649 42.8147C46.0624 42.8271 46.0494 42.8905 46.0267 42.9577C46.0221 42.9713 46.012 43.0008 45.9966 43.0349C45.9949 43.0439 45.9933 43.0528 45.9916 43.0618C45.9685 43.1882 45.9455 43.3116 45.9222 43.4481C45.8337 43.9808 45.6992 44.8343 45.5603 46.6113C45.4451 48.2439 45.3152 51.0319 45.6478 54.467C45.6332 54.2349 45.6206 54.004 45.6094 53.7699C45.5808 53.1763 45.5636 52.5934 45.555 52.0006C45.5518 51.7753 45.55 51.552 45.5493 51.3238C45.5482 50.9552 45.5507 50.5917 45.556 50.2232C45.5597 49.9741 45.5647 49.7265 45.5712 49.4783C45.5712 49.4777 45.5712 49.4772 45.5712 49.4766C45.5802 49.1322 45.5919 48.7863 45.6064 48.4384C45.6117 48.3166 45.6172 48.1963 45.6228 48.0769C45.6453 47.6025 45.6712 47.1329 45.7169 46.598C45.7236 46.5332 45.7319 46.4619 45.7386 46.4089C45.7457 46.3519 45.7529 46.2971 45.7601 46.2453C45.7665 46.1997 45.7728 46.1562 45.7788 46.1145C45.7796 46.109 45.7804 46.1034 45.7812 46.0978C45.788 46.0512 45.7943 46.0066 45.8004 45.9639C45.8064 45.9212 45.8122 45.88 45.8175 45.8396C45.8176 45.8392 45.8176 45.8388 45.8176 45.8384C45.8231 45.7961 45.8272 45.7641 45.8324 45.7193C45.8389 45.663 45.8441 45.6147 45.8499 45.5562C45.8555 45.4996 45.861 45.441 45.8662 45.381C45.8715 45.3207 45.8766 45.2593 45.8817 45.1971C45.8867 45.1349 45.8918 45.0717 45.8967 45.0081C45.9017 44.9445 45.9065 44.8802 45.9115 44.8156C45.9165 44.751 45.9216 44.6857 45.9267 44.6203C45.9384 44.4692 45.9711 44.3284 46.0185 44.2231C46.0658 44.1183 46.1233 44.0623 46.1788 44.0666C46.2342 44.071 46.2835 44.1353 46.3167 44.2459C46.3497 44.3569 46.3641 44.5006 46.3573 44.6513C46.3554 44.6923 46.3536 44.7334 46.3517 44.7748C46.3506 44.7994 46.3494 44.8242 46.3483 44.8489C46.3454 44.9153 46.3425 44.9826 46.3394 45.0503C46.3363 45.118 46.333 45.1864 46.3297 45.2556C46.3263 45.3248 46.3227 45.3961 46.3188 45.4664C46.315 45.5368 46.3107 45.6088 46.306 45.682C46.3013 45.7534 46.2955 45.835 46.2896 45.908C46.2853 45.9613 46.2793 46.0271 46.2741 46.082C46.2687 46.1392 46.263 46.1957 46.2573 46.2501C46.2516 46.3046 46.2458 46.3574 46.2404 46.4078C46.2398 46.4132 46.2393 46.4185 46.2387 46.4239C46.2339 46.4685 46.2293 46.5116 46.2252 46.5522C46.2205 46.5974 46.2165 46.6401 46.2129 46.6808C46.2088 46.7256 46.2069 46.7528 46.2047 46.7863C46.1823 47.2283 46.1689 47.7779 46.1625 48.2993C46.1616 48.3649 46.1609 48.4301 46.1602 48.4946C46.1569 48.8373 46.1564 49.1799 46.1586 49.5211C46.1601 49.769 46.1632 50.0169 46.1676 50.2661C46.1741 50.6331 46.1835 50.9949 46.1966 51.3634C46.2046 51.591 46.2137 51.8134 46.2243 52.0383C46.2523 52.6312 46.2891 53.2149 46.3375 53.8086C46.3851 54.3912 46.4449 54.9863 46.5171 55.5693C46.5893 56.1534 46.6791 56.76 46.7789 57.3261C46.8556 57.7601 46.9308 58.1719 47.019 58.5781C47.0654 58.7926 47.1112 58.9907 47.1634 59.1953C47.1636 59.196 47.1637 59.1967 47.1639 59.1974C47.2101 59.3777 47.2581 59.5515 47.3086 59.7198C47.4167 60.0807 47.544 60.4363 47.6906 60.7723C47.772 60.9584 47.8578 61.1358 47.9483 61.3045C48.0312 61.4579 48.1151 61.6052 48.205 61.7551C48.3981 62.0771 48.6135 62.3994 48.8385 62.7046C49.0662 63.0135 49.3038 63.3075 49.565 63.6047C49.9101 63.9965 50.2749 64.3684 50.6652 64.7336C51.0513 65.0949 51.4613 65.4457 51.8848 65.7884C52.03 65.9061 52.1839 66.0289 52.3349 66.1491C52.3354 66.1496 52.336 66.15 52.3366 66.1505C52.4812 66.266 52.6213 66.3767 52.7733 66.5054C52.855 66.5757 52.9299 66.6395 53.0269 66.7398C53.0765 66.7941 53.1353 66.8508 53.214 66.9846C53.2384 67.028 53.2673 67.0862 53.2903 67.1611C53.31 67.2306 53.3419 67.343 53.3155 67.5191C53.2582 67.9012 52.9234 68.0896 52.8212 68.1214C52.5829 68.2022 52.5247 68.1826 52.4263 68.189C51.8899 68.1938 51.3717 68.1761 50.8635 68.1695C50.3121 68.1618 49.7707 68.1654 49.2433 68.208C48.7162 68.2502 48.1922 68.3333 47.6979 68.4799C47.443 68.5554 47.1956 68.6487 46.9603 68.7611C46.7659 68.8544 46.5733 68.9487 46.385 69.0441C46.2671 69.1037 46.1501 69.1642 46.0338 69.2258C45.4824 69.5176 44.9696 69.8243 44.4884 70.1645C44.0092 70.5027 43.5564 70.8775 43.1325 71.2885C42.7078 71.6999 42.3133 72.1453 41.9432 72.6243C41.5713 73.1058 41.2371 73.6029 40.9209 74.1305C40.6076 74.6538 40.3187 75.1977 40.0488 75.761C39.8978 76.0758 39.7428 76.4142 39.604 76.7311C39.5693 76.8103 39.5346 76.8902 39.4999 76.9708C39.3934 77.2188 39.2899 77.465 39.1895 77.7094C39.1352 77.8416 39.0818 77.9731 39.0296 78.1036C38.9537 78.2936 38.8794 78.4829 38.8076 78.6705C38.687 78.9857 38.573 79.2962 38.4674 79.5984C38.3628 79.898 38.2632 80.1986 38.1755 80.4828C38.083 80.7823 38.013 81.0269 37.9341 81.3246C37.7324 82.0448 37.6053 82.4863 37.4652 82.9846C37.4379 83.0822 37.4112 83.1793 37.3826 83.2844C37.2181 83.8805 37.0599 84.4755 36.9099 85.0628C36.757 85.6607 36.6135 86.247 36.4741 86.8407C36.3364 87.4279 36.2015 88.0286 36.0751 88.6209C35.9476 89.2165 35.8294 89.8048 35.7101 90.4119C35.698 90.4729 35.688 90.5231 35.6772 90.5754C35.6702 90.6098 35.6637 90.6412 35.657 90.6718C35.6478 90.7032 35.655 90.7152 35.5947 90.902C35.5749 90.9502 35.5678 91.0001 35.4641 91.1676C35.4011 91.2506 35.3373 91.3913 35.0203 91.5758C34.8629 91.6625 34.6052 91.7451 34.3214 91.7147C34.0373 91.6884 33.7875 91.5493 33.6451 91.4216C33.3595 91.1541 33.3324 90.9892 33.29 90.8888C33.2567 90.7866 33.2484 90.7301 33.2409 90.6853C33.2365 90.655 33.2365 90.6535 33.2348 90.6396C33.2298 90.5944 33.2284 90.5659 33.2275 90.5423C33.2258 90.4962 33.2265 90.4702 33.2271 90.4465C33.2287 90.3942 33.2299 90.3836 33.2309 90.3657C33.2332 90.3318 33.2359 90.2974 33.2391 90.2597C33.2435 90.2107 33.2487 90.1551 33.2548 90.0908C33.3005 89.6293 33.3651 89.2171 33.428 88.8138C33.4835 88.4625 33.5456 88.0957 33.6012 87.7594C33.6285 87.5939 33.6552 87.4306 33.6801 87.2716C33.6916 87.1991 33.7032 87.1244 33.7152 87.0477C33.731 86.9451 33.7451 86.8553 33.76 86.759C33.8116 86.4247 33.8591 86.113 33.9042 85.7979C33.9481 85.493 33.9888 85.1927 34.0254 84.8963C34.0611 84.6063 34.0935 84.3143 34.1214 84.028C34.1508 83.726 34.1717 83.4798 34.1945 83.1627C34.2091 82.9572 34.2233 82.7505 34.2364 82.5509C34.2564 82.2466 34.2746 81.9495 34.2921 81.644C34.309 81.3445 34.3248 81.0428 34.3386 80.7449C34.3431 80.6486 34.3477 80.5464 34.3519 80.4494C34.3645 80.1525 34.3755 79.8555 34.3843 79.5619C34.3931 79.2675 34.3997 78.9769 34.404 78.687C34.4082 78.3959 34.4101 78.1107 34.4094 77.8192C34.4082 77.3252 34.4167 76.8532 34.4232 76.4412C34.43 76.0247 34.4357 75.6362 34.4373 75.2596C34.4376 75.1891 34.4377 75.1203 34.4377 75.0486C34.4378 74.7434 34.435 74.4472 34.4282 74.1556C34.4198 73.7965 34.4054 73.4453 34.3834 73.0972C34.3616 72.752 34.3316 72.4043 34.2924 72.075C34.2519 71.7352 34.2048 71.4234 34.1394 71.0993C34.1228 71.0173 34.1054 70.9378 34.087 70.8607C34.0265 70.5985 33.9594 70.3255 33.885 70.0433C33.7856 69.6656 33.6747 69.2748 33.5549 68.8853C33.4353 68.4962 33.306 68.1063 33.1694 67.7268C33.0325 67.3467 32.8862 66.9717 32.7317 66.6088C32.5761 66.2436 32.4119 65.8892 32.2368 65.5441C32.0623 65.1996 31.8696 64.8526 31.6782 64.5371C31.3683 64.0255 31.0266 63.5392 30.6526 63.0822C30.2804 62.6271 29.8743 62.1989 29.4382 61.8028C29.0496 61.4495 28.6361 61.1207 28.2008 60.8174C28.1457 60.779 28.0913 60.7415 28.0373 60.7047C27.5364 60.3606 27.0588 60.0871 26.7161 59.9833C26.641 59.9598 26.5737 59.9439 26.5147 59.9341C26.3744 59.9119 26.289 59.917 26.1869 59.9431C26.2802 59.9107 26.32 59.8819 26.3749 59.8308C26.3761 59.8297 26.3772 59.8285 26.3783 59.8274C26.4178 59.7841 26.472 59.7383 26.5482 59.5585C26.5837 59.4673 26.6278 59.3317 26.628 59.1223C26.6308 58.9168 26.5583 58.6238 26.4062 58.4031C26.4911 58.5413 26.6897 58.7572 26.9095 58.9335C27.0399 59.0392 27.176 59.1346 27.3194 59.2218C27.4633 59.3091 27.6099 59.3851 27.7601 59.4505C27.8518 59.4904 27.9441 59.5259 28.0359 59.5567C28.0528 59.5625 28.0837 59.5714 28.1252 59.5802C28.2253 59.6017 28.3761 59.6188 28.5393 59.6234C28.6887 59.6278 28.848 59.6239 29.0356 59.611C29.0534 59.6098 29.069 59.6086 29.0855 59.6074C29.2848 59.5922 29.5218 59.5652 29.7515 59.5326C30.347 59.4483 30.9464 59.3095 31.5475 59.1295C32.1496 58.9487 32.7444 58.728 33.3271 58.4716C33.5526 58.3724 33.7819 58.2649 34.0034 58.1548C34.3516 57.9817 34.6932 57.7961 35.0259 57.5985C35.5746 57.2727 36.1004 56.9145 36.5943 56.5229C37.0862 56.133 37.5465 55.7092 37.9565 55.2578C38.3663 54.8068 38.7305 54.322 39.0289 53.8172C39.272 53.4065 39.4724 52.9817 39.6284 52.5391C39.6966 52.3433 39.7657 52.1438 39.8357 51.9407C40.0902 51.2034 40.3429 50.4614 40.5928 49.7202C40.8435 48.9763 41.0902 48.2373 41.3363 47.493C41.5823 46.7492 41.8258 46.0063 42.0677 45.2612C42.2125 44.8155 42.3568 44.3687 42.4998 43.9235C42.5602 43.6825 42.6179 43.4509 42.6728 43.2297C43.0793 41.5883 43.3668 40.3985 43.7576 38.8454C43.7933 38.695 43.8197 38.5699 43.8506 38.4217C43.8565 38.3934 43.8628 38.3634 43.8692 38.333C43.908 38.1451 43.959 37.9093 44.031 37.6083C44.177 36.9934 44.4331 36.0523 44.8023 34.887C44.8946 34.5939 45.0454 34.4285 45.1461 34.5165C45.2158 34.5822 45.2427 34.7489 45.2178 34.9514C45.3097 34.6047 45.4046 34.2276 45.4725 33.899C45.4984 33.7762 45.5409 33.6533 45.5878 33.5968C45.6354 33.5305 45.6881 33.5348 45.744 33.5338C45.7991 33.5349 45.8535 33.555 45.8818 33.6588C45.9118 33.7447 45.9124 33.8905 45.8875 34.0314C45.8207 34.4085 45.7349 34.7922 45.6432 35.1875C45.5555 35.5638 45.457 35.9653 45.3613 36.3459C45.2618 36.7416 45.1622 37.1279 45.0619 37.5117C44.9588 37.9061 44.8562 38.2924 44.753 38.6775C44.6469 39.073 44.5443 39.4523 44.437 39.8449C44.3741 40.0753 44.3072 40.3183 44.244 40.5475C44.2203 40.6334 44.1971 40.7176 44.1737 40.8022C44.1546 40.8713 44.1352 40.941 44.1152 41.013C43.9071 41.7627 43.693 42.5232 43.4792 43.274C43.2648 44.027 43.0472 44.7818 42.8282 45.5338C42.6089 46.2868 42.3878 47.0385 42.1642 47.7898C41.9404 48.5421 41.7153 49.2904 41.4869 50.0409C41.2588 50.7902 41.0276 51.5404 40.7946 52.2853C40.7335 52.4805 40.6732 52.6723 40.6139 52.8606C40.5001 53.2222 40.3614 53.5726 40.1988 53.9139C40.1102 54.12 40.0137 54.3201 39.9105 54.5146C39.6105 55.0807 39.2521 55.6244 38.8506 56.1287C39.5999 55.2616 40.0575 54.4583 40.3831 53.6642C40.4265 53.5576 40.4677 53.4496 40.5058 53.3432C40.5612 53.1887 40.6118 53.033 40.6581 52.875C40.9531 51.8709 41.2552 50.8501 41.6686 49.546C43.032 45.2279 43.7661 42.7043 44.2411 41.1409C44.7144 39.571 44.9355 38.9056 45.185 38.2937C45.5385 37.4297 46.049 35.7097 46.2332 34.8355C46.3031 34.5145 46.4456 34.2735 46.5622 34.2982C46.6799 34.3177 46.7258 34.6038 46.6543 34.9316C46.4558 35.8729 45.9047 37.736 45.4808 38.7669C45.2915 39.2287 45.109 39.7592 44.6418 41.3086C44.1728 42.8509 43.4454 45.3534 42.0775 49.6854C41.666 50.9833 41.3691 51.9896 41.07 53.0094C41.0309 53.1423 40.9888 53.2741 40.9433 53.4054C40.9044 53.5173 40.8631 53.6294 40.8186 53.7422C40.8184 53.7429 40.8181 53.7436 40.8178 53.7443C40.4055 54.7755 39.7753 55.8575 38.6052 57.0211C35.9324 59.836 30.8433 61.3666 29.6216 61.4133C29.3772 61.4482 29.149 61.4749 28.8966 61.4916C28.4889 61.511 28.037 61.5424 27.4318 61.3755C26.6983 61.1291 25.6939 60.762 24.7402 59.5104C24.7043 59.4571 24.6754 59.3975 24.6559 59.3354C24.5488 58.9267 24.7402 58.6552 24.9064 58.454C25.0867 58.2519 25.3143 58.0963 25.5956 58.0073C25.8505 57.9279 26.1295 57.8847 26.4134 57.8871C27.6697 57.8677 28.6439 58.5085 29.4122 58.9698C29.4229 58.9765 29.4335 58.9832 29.4442 58.9899C30.1081 59.4082 30.7063 59.8278 31.2629 60.2724C31.4261 60.403 31.5867 60.5363 31.7459 60.6749C32.1282 61.0074 32.4939 61.3624 32.8267 61.7324C33.0914 62.0264 33.361 62.3444 33.6299 62.6924C34.6066 63.9542 35.6057 65.6684 36.2423 68.0572C36.4573 68.8611 36.6185 69.6377 36.7496 70.3666C37.0327 72.0415 37.0169 73.4647 37.0021 74.7501C37.0376 73.367 37.0184 72.2791 36.9446 71.3534C36.9305 71.1782 36.9136 71.0045 36.8957 70.845C36.8762 70.6733 36.854 70.5066 36.8302 70.3517C36.7 69.4931 36.5676 68.801 36.3767 68.0794C35.2321 64.0268 34.0719 62.6748 32.8998 61.3189C32.5743 60.9674 32.1927 60.5991 31.7595 60.2313C31.1469 59.7107 30.4312 59.1931 29.6336 58.7115C29.3149 58.5199 28.9778 58.321 28.6085 58.1322C27.8388 57.7399 26.6923 57.297 25.5062 57.7148C25.1783 57.8292 24.9104 58.0161 24.6883 58.2831C24.5787 58.4194 24.4764 58.5765 24.4107 58.799C24.3448 59.0104 24.3331 59.3667 24.5328 59.6482C24.5513 59.6737 24.5706 59.6993 24.59 59.7244C24.5904 59.7249 24.5908 59.7255 24.5912 59.726C24.7999 59.9938 25.0318 60.2169 25.2782 60.4196C25.8969 60.923 26.6115 61.2976 27.3842 61.5188C28.6008 61.8062 29.6732 61.5637 30.7195 61.3397C30.9109 61.2946 31.1327 61.237 31.3911 61.1619C32.8552 60.7245 35.4219 59.7914 38.0017 57.7491C38.5623 57.2966 39.1277 56.7967 39.7008 56.1482C39.8748 55.9504 40.0491 55.7384 40.2211 55.5085C40.6795 54.8929 41.1441 54.1356 41.4956 53.1483C41.698 52.5791 41.9186 51.9403 42.1515 51.2435C42.6594 49.7246 43.2486 47.8586 43.8419 45.9197C44.1343 44.9643 44.4283 43.99 44.7153 43.0287C45.5739 40.119 46.3817 37.4752 47.0138 34.7277C47.0139 34.7271 47.014 34.7266 47.0141 34.726C47.0867 34.3937 47.2277 34.1411 47.3437 34.1702C47.4598 34.2012 47.5028 34.5176 47.4289 34.8526C46.7845 37.6388 45.9817 40.2628 45.1236 43.1706C44.8406 44.1186 44.5485 45.0865 44.2569 46.0392C43.6601 47.9899 43.0622 49.8835 42.5483 51.4196C42.3219 52.0963 42.1055 52.7238 41.9071 53.2825C41.52 54.3747 41.002 55.1997 40.4982 55.8614C40.3066 56.1117 40.1164 56.3371 39.9293 56.5442C39.3321 57.2018 38.7787 57.6799 38.2288 58.1209C35.6469 60.147 33.1394 61.0787 31.6338 61.5428C31.3602 61.6245 31.1297 61.6865 30.9176 61.7379C29.8016 61.9768 28.698 62.2719 27.2469 61.9323C26.4829 61.7114 25.7786 61.3535 25.1496 60.8739C24.8816 60.6676 24.6277 60.4402 24.3879 60.1652C24.3874 60.1646 24.3869 60.1641 24.3864 60.1636C24.3122 60.0781 24.2397 59.9878 24.1691 59.8899C23.878 59.4747 23.9016 58.9562 23.9933 58.6712C24.0849 58.3681 24.219 58.1693 24.3578 57.998C24.6393 57.6644 24.9662 57.4392 25.3788 57.2975C26.6614 56.8513 27.896 57.2956 28.6803 57.6825C29.1341 57.906 29.5215 58.1359 29.8795 58.3501C30.5807 58.7734 31.2096 59.2138 31.7824 59.6777C32.251 60.0573 32.6836 60.4549 33.0821 60.8738C34.3857 62.3323 35.625 63.8208 36.792 67.9615ZM45.0661 35.5134C44.8346 36.2492 44.6636 36.8607 44.548 37.3172C44.6603 36.9373 44.7731 36.5504 44.8833 36.1638C44.9427 35.9567 45.0088 35.7194 45.0661 35.5134ZM26.5041 58.3213C26.3786 58.3223 26.2529 58.333 26.1292 58.3542C26.4729 58.3112 26.8253 58.3525 27.1614 58.4475C27.5752 58.5642 27.9677 58.7556 28.3434 58.9709C27.7518 58.622 27.1226 58.3483 26.5041 58.3213ZM35.8265 68.1741C35.2336 65.9633 34.3661 64.4223 33.4483 63.1822C33.1829 62.8251 32.9102 62.4909 32.6299 62.1707C32.514 62.0383 32.395 61.9092 32.2714 61.7809C32.9247 62.5788 33.4285 63.3824 33.7953 64.06C34.8693 66.1012 35.1487 67.3965 35.4179 68.4968C35.4912 68.8195 35.5544 69.1264 35.6159 69.4445C35.6868 69.7006 35.7569 69.9711 35.8219 70.2411C35.8446 70.3358 35.8671 70.4311 35.8891 70.5263C35.9576 70.8233 36.0153 71.1411 36.061 71.4481C36.1212 71.8486 36.1667 72.2696 36.1993 72.6683C36.2327 73.0793 36.2543 73.4802 36.2685 73.8838C36.2818 74.2614 36.2881 74.6389 36.2902 75.0034C36.2903 75.0244 36.2904 75.0454 36.2905 75.0664C36.2923 75.4501 36.2893 75.8257 36.2867 76.1693C36.2841 76.5198 36.2824 76.8106 36.2864 77.0688C36.2914 77.3912 36.2928 77.7227 36.2912 78.05C36.2896 78.3778 36.2849 78.7036 36.2775 79.0289C36.2701 79.3541 36.2601 79.6776 36.2481 79.9996C36.2441 80.1043 36.2398 80.2139 36.2354 80.3174C36.2334 80.3651 36.2314 80.4127 36.2294 80.4602C36.2841 79.8299 36.3364 79.177 36.3838 78.4992C36.4517 77.5205 36.5196 76.4738 36.556 75.3124C36.5873 73.8948 36.6359 72.3225 36.3251 70.4454C36.1963 69.7298 36.0383 68.9669 35.8265 68.1741ZM35.1694 89.9351C35.197 89.6744 35.245 89.2848 35.3129 88.7752C35.3289 88.6547 35.3458 88.5272 35.3636 88.3933C35.363 88.3964 35.3626 88.3997 35.362 88.4028C35.3043 88.7327 35.2511 89.0355 35.1987 89.3598C35.1502 89.6619 35.1048 89.9606 35.0737 90.243C35.065 90.3282 35.06 90.3683 35.0531 90.4455C35.0518 90.4604 35.0507 90.4723 35.0499 90.4801C35.0495 90.4856 35.0491 90.4926 35.049 90.4873C35.0446 90.4629 35.0631 90.5322 35.0312 90.3552C35.0117 90.308 35.0229 90.2329 34.8556 90.0597C34.7728 89.9765 34.5854 89.8835 34.4047 89.9C34.2246 89.9133 34.1135 89.9916 34.0531 90.0417C33.85 90.2484 33.9016 90.2607 33.877 90.2935C33.8672 90.3224 33.8715 90.3105 33.8693 90.3175C33.8674 90.3241 33.8666 90.3275 33.8662 90.3294C33.8655 90.3329 33.8664 90.33 33.8679 90.3243C33.872 90.3072 33.8734 90.3024 33.8769 90.2873C33.9052 90.1609 33.9315 90.0323 33.9617 89.8862C34.0788 89.3204 34.204 88.7343 34.3331 88.1635C34.4626 87.5895 34.6 87.0077 34.7396 86.4426C34.8804 85.872 35.0272 85.3019 35.179 84.7344C35.2282 84.5505 35.2758 84.3748 35.3262 84.1907C35.2024 84.5926 35.0807 85.0094 34.956 85.4558C34.8574 85.8081 34.7572 86.178 34.6536 86.5719C34.614 86.7224 34.5669 86.8981 34.5108 87.1137C34.4098 87.5001 34.2824 88.0039 34.1479 88.6004C34.0789 88.9073 34.0118 89.22 33.9406 89.5753C33.905 89.7526 33.87 89.9339 33.8349 90.1158C33.8251 90.1661 33.8194 90.1955 33.8085 90.2497C33.8038 90.2728 33.8008 90.2872 33.7971 90.3037C33.7951 90.3131 33.7937 90.3179 33.7963 90.3077C33.7971 90.3051 33.7981 90.3013 33.7998 90.2958C33.8006 90.293 33.8016 90.2897 33.8029 90.2859C33.8027 90.2869 33.8053 90.2767 33.8174 90.2462C33.8351 90.2138 33.8307 90.1781 33.9496 90.0401C34.0116 89.9794 34.147 89.8334 34.4465 89.8261C34.755 89.8256 34.9537 90.0369 35.0093 90.1291C35.1274 90.3294 35.1039 90.3753 35.1148 90.4046C35.1167 90.4177 35.1178 90.4279 35.1186 90.4363C35.1201 90.4531 35.1205 90.4633 35.1208 90.4709C35.121 90.5153 35.1234 90.4377 35.1275 90.3936C35.1304 90.3549 35.1344 90.3064 35.1392 90.2485C35.1475 90.1481 35.1579 90.0429 35.1694 89.9351ZM36.6625 79.6761C36.7075 79.5467 36.7532 79.4178 36.7995 79.2902C36.9298 78.9306 37.0653 78.577 37.2004 78.2381C37.2957 77.9991 37.3936 77.7606 37.4904 77.5301C37.5314 77.4324 37.5727 77.3346 37.6141 77.2378C37.6836 77.0753 37.7529 76.9153 37.8227 76.7566C37.3126 77.8624 36.8618 78.9616 36.4381 80.1261C36.4325 80.1415 36.427 80.157 36.4214 80.1725C36.5031 80.0018 36.5834 79.8365 36.6625 79.6761Z" fill="#2A2A2A"/>
<path d="M9.34129 90.2049C9.38106 90.4289 9.41237 90.6469 9.43866 90.8658C9.49025 91.2853 9.50752 91.6915 9.51142 92.1464C9.51144 92.1468 9.51147 92.1472 9.51149 92.1476C9.51246 92.2551 9.51204 92.3566 9.5113 92.4674C9.50374 93.3478 9.45339 94.4555 9.3449 96.0872C9.22192 97.8908 8.97323 99.2921 8.78028 100.144C8.74384 100.304 8.71701 100.468 8.66566 100.886C8.63208 101.158 8.5889 101.529 8.52416 102.062C8.51333 102.151 8.50003 102.262 8.48794 102.36C8.46149 102.577 8.43021 102.812 8.39574 103.067C8.35185 103.397 8.29927 103.787 8.27045 104.147C8.26731 104.19 8.26505 104.221 8.26307 104.25C8.26185 104.269 8.26111 104.282 8.26092 104.284C8.26054 104.285 8.26183 104.289 8.26064 104.233C8.26009 104.217 8.25946 104.197 8.25597 104.161C8.25235 104.133 8.26301 104.201 8.24428 104.075C8.22839 104.012 8.23356 103.939 8.11337 103.71C8.04616 103.6 7.93612 103.408 7.62003 103.245C7.30601 103.07 6.81052 103.119 6.58645 103.256C6.13259 103.535 6.14962 103.683 6.0883 103.762C6.04833 103.844 6.03661 103.882 6.02592 103.913C6.00484 103.98 6.0093 103.97 6.0074 103.976C5.99999 104.004 5.99766 104.016 5.99592 104.024C5.99248 104.045 6.01316 103.92 6.02286 103.857C6.04738 103.7 6.07127 103.547 6.09813 103.379C6.15011 103.055 6.20683 102.717 6.26789 102.373C6.38894 101.69 6.52737 100.984 6.6768 100.3C6.92088 99.1777 7.19717 98.1198 7.43567 97.3235C7.70255 96.4307 7.99926 95.5745 8.35318 94.6894C8.46532 94.4092 8.58153 94.1351 8.71084 93.8496C9.21459 92.758 9.83704 91.5676 10.9235 90.3912C11.5976 89.6626 12.4371 89.1171 13.2471 88.7183C13.4879 88.5923 13.741 88.4966 13.9945 88.4302C14.1639 88.3858 14.3336 88.354 14.5003 88.3328C15.3719 88.2233 16.1553 88.3849 16.8548 88.4378C16.8457 88.439 16.8281 88.4396 16.7889 88.4475C16.7332 88.4691 16.6568 88.4448 16.4654 88.6424C16.2839 88.847 16.33 89.1365 16.3503 89.1755C16.3771 89.2576 16.3905 89.2679 16.3993 89.2831C16.4278 89.3174 16.392 89.2623 16.365 89.2297C16.3013 89.1506 16.2162 89.0572 16.1305 88.9631C15.057 87.817 14.2239 86.7287 13.5906 85.4862C13.4559 85.2218 13.333 84.9322 13.2289 84.649C12.9935 84.0066 12.8196 83.3289 12.684 82.5912C12.4663 81.4336 12.3291 79.7539 12.3062 78.0826C12.3039 77.9404 12.3021 77.7978 12.3011 77.6553C12.3011 77.6546 12.3011 77.6539 12.301 77.6532C12.2893 76.1227 12.3497 74.6307 12.3996 73.5333C12.4827 71.793 12.5137 71.1403 12.53 70.5899C12.537 70.3852 12.5438 70.1966 12.5575 69.967C12.6067 69.1477 12.7354 67.935 12.9154 66.6794C12.916 66.675 12.9167 66.6706 12.9173 66.6663C12.9488 66.4476 13.0745 66.2871 13.1908 66.3162C13.3089 66.3313 13.3755 66.5152 13.3444 66.7303C13.2503 67.3787 13.1713 68.0267 13.1099 68.5994C13.2084 68.6401 13.2693 68.7953 13.2486 68.9828C13.2002 69.4423 13.1176 70.8738 13.1088 73.0965C13.1364 72.9472 13.1627 72.8177 13.1871 72.7079C13.2157 72.5783 13.2398 72.4801 13.2605 72.396C13.3037 72.2204 13.3329 72.0979 13.3634 71.8889C13.4165 71.4001 13.4821 70.6332 13.5644 69.8238C13.585 69.6207 13.699 69.4604 13.8173 69.4748C13.936 69.4864 14.0141 69.6673 13.9937 69.8689C13.9933 69.8728 13.993 69.8767 13.9926 69.8806C13.9115 70.678 13.8441 71.4682 13.7889 71.9746C13.7748 72.1037 13.7613 72.216 13.7504 72.3006C13.7416 72.3696 13.7307 72.4496 13.7206 72.4959C13.7192 72.5019 13.7166 72.5135 13.7128 72.5272C13.7127 72.5275 13.7126 72.5277 13.7125 72.5279C13.7104 72.5356 13.6997 72.5749 13.6794 72.6164C13.6753 72.6248 13.6662 72.643 13.652 72.6639C13.6507 72.6695 13.6493 72.675 13.648 72.6806C13.6293 72.7582 13.6103 72.8377 13.5914 72.9243C13.5188 73.2597 13.4158 73.7915 13.3036 74.9096C13.2058 75.9375 13.1173 77.6847 13.2482 79.8528C13.2477 79.7032 13.2482 79.5601 13.249 79.4125C13.2509 79.0407 13.2566 78.6722 13.2658 78.2984C13.2693 78.1561 13.2735 78.0165 13.278 77.8734C13.2854 77.6429 13.2942 77.4117 13.3043 77.1813C13.3111 77.0255 13.3185 76.8691 13.3266 76.7131C13.3266 76.7127 13.3266 76.7124 13.3266 76.712C13.3378 76.4955 13.3503 76.2784 13.3643 76.0601C13.3694 75.9838 13.3745 75.9078 13.3796 75.8327C13.4 75.5334 13.4218 75.2415 13.4599 74.9032C13.4657 74.8623 13.4729 74.8179 13.4788 74.7848C13.4851 74.7492 13.4914 74.715 13.4977 74.6827C13.5033 74.6543 13.509 74.6272 13.5142 74.6012C13.5149 74.5977 13.5156 74.5942 13.5163 74.5907C13.5223 74.5617 13.5278 74.534 13.533 74.5072C13.5383 74.4803 13.5434 74.4543 13.5479 74.4287C13.548 74.4285 13.548 74.4282 13.548 74.428C13.5527 74.4013 13.5562 74.381 13.5605 74.3527C13.5659 74.3172 13.5702 74.2866 13.5748 74.2497C13.5792 74.2139 13.5835 74.1767 13.5874 74.1391C13.5914 74.1015 13.5952 74.0632 13.5988 74.0245C13.6024 73.9857 13.606 73.9463 13.6094 73.9066C13.6128 73.867 13.6161 73.8269 13.6195 73.7867C13.6228 73.746 13.6263 73.7043 13.6297 73.6629C13.6376 73.5672 13.6665 73.4771 13.7108 73.4125C13.7551 73.3479 13.8109 73.314 13.8664 73.3176C13.9219 73.3212 13.973 73.3622 14.0092 73.4317C14.0454 73.5012 14.0636 73.5937 14.0606 73.6892C14.0598 73.7152 14.059 73.7413 14.0582 73.7676C14.0577 73.7831 14.0571 73.799 14.0566 73.8143C14.0553 73.8557 14.0541 73.8976 14.0526 73.9398C14.0511 73.982 14.0495 74.0246 14.0476 74.0678C14.0458 74.111 14.0438 74.1549 14.0415 74.1995C14.0391 74.244 14.0363 74.2895 14.033 74.3357C14.0298 74.3809 14.0255 74.4324 14.0209 74.4785C14.0176 74.5123 14.0128 74.5535 14.0086 74.5876C14.0042 74.6233 13.9995 74.6585 13.9947 74.6924C13.9899 74.7264 13.985 74.7593 13.9804 74.7907C13.9799 74.7941 13.9794 74.7975 13.9789 74.8008C13.9748 74.8286 13.9709 74.8555 13.9673 74.8809C13.9633 74.9093 13.9599 74.9362 13.9568 74.9618C13.9534 74.9899 13.9519 75.0071 13.9501 75.0281C13.9334 75.3081 13.9251 75.6494 13.92 75.9783C13.9193 76.0197 13.9186 76.0604 13.9181 76.1009C13.9153 76.3159 13.9138 76.5306 13.9137 76.7449C13.9136 76.9008 13.9141 77.0568 13.9152 77.2126C13.9169 77.4416 13.9198 77.6723 13.9241 77.9016C13.9268 78.0443 13.9299 78.1826 13.9336 78.3253C13.9433 78.6974 13.9565 79.0666 13.9735 79.4377C13.9903 79.804 14.0112 80.1783 14.0358 80.5473C14.0603 80.9158 14.09 81.2987 14.1208 81.6608C14.1437 81.9316 14.1627 82.2046 14.1839 82.4589C14.1956 82.5972 14.2078 82.7303 14.2209 82.8592C14.2209 82.8596 14.2209 82.8601 14.221 82.8605C14.2319 82.9709 14.2462 83.09 14.2608 83.201C14.2919 83.4381 14.3318 83.6731 14.3814 83.8991C14.4288 84.1189 14.4928 84.3514 14.5641 84.5601C14.6105 84.6951 14.6608 84.824 14.7142 84.9447C14.7512 85.0277 14.7893 85.1087 14.8285 85.1885C14.9329 85.4004 15.0445 85.602 15.1719 85.809C15.3399 86.0812 15.5224 86.3412 15.7236 86.5999C15.9237 86.8569 16.1371 87.1042 16.3639 87.3461C16.4432 87.4307 16.5235 87.514 16.6059 87.5974C16.6062 87.5977 16.6065 87.598 16.6068 87.5984C16.7589 87.7523 16.9165 87.9038 17.0801 88.0605C17.1681 88.1456 17.2546 88.227 17.3582 88.3364C17.4112 88.3969 17.462 88.4363 17.5655 88.6035C17.5901 88.6487 17.6285 88.7081 17.6624 88.8455C17.7025 88.936 17.695 89.3615 17.455 89.5692C17.2051 89.7845 17.1255 89.758 17.0227 89.788C16.9551 89.7996 16.9022 89.802 16.8548 89.8023C16.7285 89.8039 16.6066 89.8026 16.4878 89.8004C16.1235 89.7933 15.7856 89.7807 15.4684 89.7928C15.1513 89.8042 14.8508 89.8404 14.5803 89.9156C14.4065 89.9638 14.2448 90.029 14.0945 90.1138C14.0177 90.1578 13.9416 90.2021 13.8672 90.2464C13.7973 90.288 13.7283 90.33 13.6603 90.3724C13.3366 90.5742 13.0436 90.7836 12.7745 91.0161C12.5062 91.2476 12.2602 91.5028 12.0339 91.7822C11.8094 92.0591 11.6018 92.3632 11.4144 92.6813C11.2255 93.0018 11.0576 93.3333 10.9019 93.6808C10.7475 94.0258 10.6077 94.3815 10.4789 94.7476C10.4075 94.9506 10.3335 95.168 10.2649 95.3768C10.2611 95.3885 10.2572 95.4002 10.2534 95.4119C10.1875 95.6129 10.124 95.8112 10.0619 96.0095C10.0353 96.0946 10.0091 96.1791 9.98352 96.263C9.9464 96.3849 9.90954 96.5081 9.87475 96.6279C9.81623 96.8297 9.76072 97.0306 9.71113 97.2237C9.66109 97.4182 9.61619 97.6077 9.5773 97.7917C9.53654 97.9843 9.50841 98.1393 9.47783 98.332C9.39452 98.7916 9.33424 99.0755 9.26901 99.3915C9.25625 99.4537 9.24404 99.515 9.23059 99.5826C9.1533 99.9616 9.07726 100.338 9.00352 100.712C8.92847 101.091 8.85742 101.459 8.78605 101.836C8.71524 102.21 8.64578 102.586 8.57843 102.961C8.51087 103.337 8.4469 103.703 8.38148 104.086C8.36495 104.182 8.34928 104.274 8.32949 104.385C8.3224 104.422 8.3239 104.422 8.30237 104.524C8.29937 104.537 8.29579 104.552 8.28998 104.574C8.28494 104.591 8.29932 104.545 8.27008 104.643C8.25431 104.686 8.24563 104.734 8.1669 104.877C8.12033 104.95 8.07143 105.058 7.8614 105.23C7.7547 105.313 7.58998 105.416 7.34742 105.465C7.1081 105.516 6.80249 105.475 6.58956 105.368C6.15465 105.138 6.07594 104.894 6.01127 104.777C5.955 104.65 5.94156 104.582 5.92913 104.529C5.91808 104.477 5.91353 104.442 5.91033 104.416C5.90985 104.412 5.90942 104.408 5.90901 104.405C5.9074 104.39 5.90629 104.377 5.90543 104.366C5.89975 104.282 5.90198 104.259 5.90216 104.232C5.90393 104.174 5.90449 104.18 5.90572 104.158C5.9111 104.078 5.91439 104.05 5.91989 103.986C5.94056 103.758 5.96719 103.556 5.99427 103.359C6.02563 103.133 6.06213 102.9 6.0961 102.686C6.12059 102.531 6.14478 102.381 6.16738 102.236C6.17351 102.196 6.17953 102.157 6.18537 102.119C6.18832 102.099 6.19129 102.08 6.19428 102.06C6.22589 101.847 6.25471 101.652 6.2814 101.455C6.30777 101.262 6.33136 101.073 6.35139 100.887C6.37122 100.704 6.38781 100.52 6.4006 100.34C6.41429 100.148 6.42231 99.9962 6.42952 99.7945C6.43382 99.6662 6.43824 99.5336 6.44173 99.4091C6.44734 99.2184 6.45208 99.0298 6.45615 98.8383C6.46007 98.6486 6.46326 98.4588 6.46518 98.2717C6.46582 98.2112 6.46645 98.147 6.4669 98.0859C6.46822 97.8979 6.46846 97.7119 6.4673 97.5269C6.46613 97.3421 6.4637 97.1584 6.45963 96.9763C6.45559 96.7927 6.45001 96.6136 6.44266 96.4301C6.43005 96.1188 6.43051 95.8224 6.43211 95.5636C6.43397 95.3017 6.43746 95.0573 6.43924 94.8211C6.43958 94.7765 6.43986 94.7321 6.44007 94.6878C6.44105 94.4981 6.44103 94.3088 6.43883 94.1269C6.43619 93.8991 6.43044 93.6785 6.4211 93.4585C6.41184 93.2395 6.39885 93.0211 6.38133 92.8079C6.36358 92.5933 6.34251 92.3897 6.31393 92.1765C6.2856 91.9651 6.24897 91.7546 6.20224 91.5406C6.18909 91.48 6.17542 91.4212 6.16137 91.365C6.12043 91.1886 6.07713 91.0062 6.03341 90.8274C5.97249 90.578 5.90946 90.3287 5.84499 90.0846C5.7804 89.8402 5.71333 89.598 5.64442 89.364C5.57505 89.1285 5.50292 88.8978 5.42685 88.6722C5.35114 88.4475 5.26835 88.2198 5.18605 88.0107C5.0531 87.6724 4.90567 87.3477 4.74078 87.0376C4.57688 86.7293 4.39569 86.4357 4.19685 86.1602C3.99844 85.8853 3.78189 85.6279 3.54762 85.3902C3.43041 85.2712 3.3088 85.1572 3.18185 85.0475C3.04179 84.9267 2.91418 84.8228 2.81166 84.749C2.76643 84.7164 2.72648 84.6897 2.6952 84.6704C2.56926 84.5918 2.63906 84.667 2.85501 84.6267C2.85627 84.6264 2.85755 84.6261 2.8588 84.6258C2.89291 84.6184 2.92485 84.6081 2.95088 84.5974C3.22915 84.482 3.3276 84.3693 3.43918 84.2096C3.49212 84.1248 3.54923 84.024 3.59165 83.8318C3.62944 83.65 3.6601 83.3013 3.44727 82.9071C3.44992 82.9151 3.46308 82.9394 3.48212 82.9672C3.51233 83.0115 3.55484 83.0631 3.60284 83.1119C3.65109 83.161 3.7038 83.2066 3.75709 83.2459C3.8105 83.2853 3.86385 83.3176 3.91224 83.3415C3.93281 83.3517 3.95241 83.3603 3.97094 83.3676C3.92155 83.3476 3.90263 83.3449 3.9035 83.344C3.90551 83.3434 3.94724 83.3471 4.01212 83.3444C4.01827 83.3442 4.02436 83.3439 4.0303 83.3436C4.10294 83.3402 4.21225 83.3296 4.31966 83.3145C4.60987 83.2749 4.93773 83.1867 5.26238 83.0667C5.58923 82.9459 5.91439 82.7934 6.22834 82.616C6.35203 82.5461 6.47166 82.4735 6.59141 82.3963C6.77555 82.2774 6.9562 82.1489 7.12864 82.014C7.41321 81.7914 7.67879 81.5496 7.92115 81.2909C8.16265 81.0331 8.38094 80.7583 8.56955 80.472C8.75824 80.1859 8.9197 79.8842 9.04894 79.5739C9.1097 79.428 9.16272 79.2822 9.20967 79.1305C9.29038 78.8616 9.37221 78.587 9.45384 78.3115C9.59327 77.8416 9.73265 77.3677 9.87045 76.896C10.0082 76.4246 10.1455 75.9507 10.2816 75.4784C10.4178 75.0057 10.5533 74.5324 10.6879 74.0587C10.7685 73.7749 10.8485 73.4927 10.9287 73.2079C10.9554 73.0539 10.9803 72.9073 11.0048 72.7646C11.1831 71.717 11.3087 70.9575 11.4955 69.9672C11.5116 69.8713 11.5213 69.7934 11.5328 69.6998C11.535 69.682 11.5374 69.6634 11.54 69.6431C11.5563 69.5157 11.5744 69.3771 11.6092 69.1803C11.6764 68.7949 11.8117 68.1926 12.0488 67.4673C12.1071 67.2904 12.2408 67.1864 12.3487 67.2472C12.4245 67.2886 12.4666 67.402 12.4645 67.5258C12.5187 67.3058 12.573 67.0754 12.6138 66.8747C12.6292 66.8023 12.6634 66.7296 12.7077 66.7006C12.7523 66.6673 12.8061 66.6758 12.8618 66.6741C12.9171 66.6744 12.9705 66.6793 13.0039 66.7423C13.0382 66.7915 13.0486 66.8844 13.036 66.9691C13.0017 67.201 12.9553 67.4506 12.9087 67.6928C12.8619 67.9346 12.8121 68.1812 12.7612 68.4282C12.7107 68.6734 12.6588 68.9205 12.6063 69.1676C12.554 69.4141 12.5013 69.659 12.4471 69.9092C12.3937 70.1555 12.3402 70.4014 12.2854 70.6505C12.2522 70.8017 12.2199 70.9478 12.1867 71.0978C12.1743 71.1535 12.1624 71.2078 12.1507 71.2608C12.141 71.3044 12.1311 71.3483 12.121 71.3937C12.0142 71.8736 11.9056 72.3557 11.7966 72.8347C11.6869 73.3166 11.5767 73.796 11.4651 74.2766C11.3535 74.7571 11.2411 75.2372 11.1276 75.7169C11.0143 76.1957 10.8993 76.6767 10.7838 77.1549C10.6686 77.6326 10.551 78.1139 10.4335 78.5902C10.3659 78.8641 10.2981 79.1373 10.2315 79.4041C10.2093 79.4934 10.1852 79.5816 10.1592 79.6688C10.1286 79.8017 10.0917 79.9362 10.0519 80.0643C9.93449 80.4411 9.78616 80.8132 9.60501 81.1677C9.96746 80.5613 10.1528 80.0235 10.2718 79.5066C10.2783 79.4777 10.2847 79.4489 10.2908 79.42C10.2999 79.3772 10.3091 79.3344 10.3183 79.2914C10.4796 78.5384 10.6369 77.8077 10.8905 76.8405C11.6106 74.084 12 72.4785 12.2605 71.4828C12.5191 70.4883 12.6536 70.0665 12.8224 69.6794C13.06 69.14 13.3573 68.0437 13.4529 67.4911C13.4883 67.2935 13.6094 67.1395 13.7267 67.1608C13.8452 67.1748 13.9142 67.3655 13.8778 67.5685C13.774 68.1677 13.4564 69.3489 13.17 70.002C13.0437 70.2874 12.9284 70.6307 12.6733 71.612C12.416 72.5945 12.0299 74.1878 11.3074 76.9539C11.0623 77.8883 10.9108 78.5913 10.7507 79.3395C10.7369 79.4038 10.7233 79.468 10.7096 79.5321C10.7076 79.5412 10.7056 79.5503 10.7036 79.5594C10.7035 79.5599 10.7034 79.5604 10.7033 79.5608C10.5494 80.2432 10.2883 80.9878 9.68019 81.8367C8.32005 83.9029 5.14977 85.1819 4.33309 85.1748C4.1778 85.1971 4.02118 85.2125 3.85471 85.2138C3.67714 85.2126 3.49243 85.206 3.25901 85.1268C2.81428 84.9565 2.23641 84.6897 1.70708 83.8563C1.5108 83.3991 1.73525 83.1315 1.92828 82.9204C2.01313 82.8393 2.11626 82.7652 2.24981 82.7137C2.61633 82.5601 3.1071 82.6082 3.4756 82.7837C3.90744 82.9452 4.24605 83.1811 4.55138 83.3954C4.77821 83.5576 4.98557 83.725 5.17348 83.8944C5.55752 84.2407 5.90099 84.5775 6.21724 84.9247C6.30824 85.0247 6.39807 85.1268 6.48585 85.2311C6.69746 85.4823 6.89652 85.7448 7.07201 86.0129C7.21198 86.2268 7.35409 86.4529 7.49577 86.6982C8.01053 87.586 8.51853 88.7406 8.78852 90.2714C8.82981 90.5034 8.86603 90.7293 8.89861 90.9481C9.09215 92.3836 9.03873 93.5248 9.0055 94.5453C9.05157 93.6736 9.07554 92.9938 9.07865 92.4135C9.07925 92.3053 9.07897 92.1994 9.07784 92.0968C9.07291 91.6645 9.05491 91.2944 9.01123 90.9309C8.98564 90.7135 8.95552 90.5018 8.91696 90.2843C8.43162 87.6789 7.8934 86.694 7.26775 85.7072C7.09476 85.4478 6.88688 85.1712 6.64599 84.8879C6.16535 84.3215 5.54975 83.7315 4.8309 83.1931C4.80804 83.176 4.78497 83.1588 4.76167 83.1417C4.48533 82.9428 4.17804 82.722 3.76203 82.5344C3.36669 82.3495 2.71694 82.2054 2.15617 82.4621C1.91753 82.5636 1.75583 82.7129 1.62791 82.8884C1.62749 82.889 1.62707 82.8895 1.62665 82.8901C1.49084 83.115 1.26336 83.4171 1.51536 83.9609C1.53656 83.9945 1.55846 84.0273 1.58092 84.0593C2.00171 84.6344 2.55056 85.0312 3.2053 85.2595C3.93759 85.466 4.49622 85.2952 5.05335 85.1555C5.17269 85.1215 5.31821 85.0751 5.47896 85.0163C6.4031 84.6737 7.97126 83.9068 9.41294 82.3843C9.72592 82.0486 10.039 81.6823 10.3435 81.2197C10.4366 81.0776 10.5268 80.9296 10.6159 80.7672C10.7918 80.4463 10.9611 80.0756 11.1003 79.6367C11.2534 79.158 11.4196 78.6126 11.5997 77.9801C11.8763 77.0089 12.1886 75.8195 12.5041 74.5817C12.6595 73.972 12.8158 73.3507 12.9691 72.7381C13.4276 70.8848 13.867 69.2003 14.2122 67.4527C14.2122 67.4523 14.2123 67.452 14.2123 67.4516C14.2525 67.2367 14.3737 67.0774 14.491 67.0995C14.6084 67.1218 14.6752 67.3293 14.634 67.5475C14.2813 69.3268 13.8442 70.9988 13.3859 72.8515C13.2347 73.4558 13.0793 74.0733 12.9243 74.6816C12.6068 75.9273 12.2898 77.1347 12.01 78.1171C11.8335 78.7367 11.6699 79.2747 11.5188 79.7487C11.3617 80.25 11.1671 80.67 10.9661 81.0295C10.8653 81.2096 10.7638 81.3725 10.662 81.5242C10.3373 82.0054 10.0228 82.3654 9.70873 82.7005C8.2301 84.2483 6.66971 85.0254 5.69376 85.3992C5.51629 85.4656 5.36219 85.5165 5.22448 85.5568C4.60223 85.7085 4.01842 85.9386 3.04196 85.6631C2.33907 85.4125 1.77178 85.0058 1.30271 84.4159C1.24413 84.3398 1.18717 84.2589 1.13223 84.1699C0.824073 83.5593 1.01441 83.1401 1.12702 82.8795C1.12742 82.8785 1.12782 82.8776 1.12823 82.8767C1.32052 82.5076 1.56443 82.2426 2.00388 82.0529C2.70472 81.7402 3.51153 81.9309 3.9536 82.1433C4.42567 82.36 4.74787 82.597 5.03332 82.8029C5.03523 82.8043 5.03714 82.8057 5.03905 82.8071C5.76602 83.3457 6.35418 83.8939 6.84975 84.4523C7.11606 84.7533 7.35488 85.0586 7.56888 85.3728C8.27225 86.4533 8.84615 87.5416 9.34129 90.2049ZM12.377 67.8771C12.2312 68.3426 12.1385 68.724 12.0795 69.0182C12.1445 68.7731 12.2088 68.529 12.271 68.2901C12.3073 68.1495 12.3418 68.0163 12.377 67.8771ZM3.35259 83.2024C3.2788 83.1744 3.20332 83.1505 3.1272 83.1328C3.33238 83.1976 3.52635 83.3053 3.71022 83.4263C3.88427 83.5411 4.05074 83.6696 4.21457 83.8017C4.26376 83.8414 4.31227 83.8815 4.3601 83.922C4.31272 83.8805 4.26485 83.8396 4.21652 83.7993C3.93411 83.5645 3.65035 83.346 3.35259 83.2024ZM8.36385 90.3501C8.11223 88.9334 7.66885 87.9031 7.18872 87.0459C7.04987 86.7985 6.90649 86.5631 6.76037 86.3354C6.69947 86.2404 6.63667 86.1481 6.5708 86.0557C6.8797 86.6332 7.10353 87.1893 7.26438 87.6502C7.73044 89.0306 7.81857 89.8522 7.91654 90.5618C7.93875 90.7399 7.95887 90.9153 7.97794 91.0883C7.98075 91.1138 7.9835 91.1396 7.98618 91.1656C8.0248 91.3334 8.05898 91.5048 8.08855 91.6844C8.12945 91.9277 8.16456 92.1997 8.19083 92.4518C8.21759 92.7101 8.23793 92.9684 8.25282 93.2219C8.26787 93.4804 8.27762 93.7344 8.2837 93.9868C8.28943 94.2259 8.29171 94.4636 8.29236 94.6917C8.29239 94.7048 8.29242 94.7179 8.29244 94.7311C8.2929 94.9748 8.29144 95.2092 8.29184 95.4259C8.29233 95.6462 8.29468 95.8297 8.30294 95.9927C8.31316 96.1966 8.32139 96.405 8.32748 96.6116C8.33361 96.8183 8.3377 97.0242 8.34003 97.2292C8.34238 97.4343 8.34305 97.6379 8.34226 97.8419C8.34199 97.908 8.34157 97.977 8.34104 98.0421C8.3408 98.0722 8.3406 98.1021 8.34031 98.132C8.37128 97.7359 8.40193 97.3236 8.43124 96.8968C8.47339 96.2805 8.52091 95.6215 8.55735 94.8912C8.6007 93.7996 8.6768 92.568 8.47168 91.0131C8.43976 90.7988 8.40429 90.5776 8.36385 90.3501ZM7.80281 104.094C7.8127 103.938 7.83316 103.696 7.86511 103.377C7.87262 103.301 7.8806 103.221 7.88923 103.137C7.88889 103.139 7.88866 103.141 7.88832 103.143C7.85333 103.35 7.82185 103.54 7.79236 103.741C7.77385 103.868 7.75685 103.993 7.74365 104.111C7.73694 104.175 7.73053 104.239 7.72736 104.267C7.72682 104.268 7.72761 104.269 7.7257 104.234C7.72539 104.23 7.72498 104.224 7.72434 104.217C7.72402 104.214 7.72364 104.21 7.72317 104.206C7.72191 104.204 7.72616 104.198 7.70602 104.115C7.69118 104.073 7.68763 104.014 7.58455 103.882C7.53161 103.819 7.43314 103.727 7.27508 103.684C7.11788 103.638 6.93957 103.674 6.8405 103.727C6.63967 103.84 6.61848 103.922 6.5858 103.966C6.5595 104.011 6.55066 104.036 6.54313 104.055C6.5172 104.129 6.52683 104.107 6.52406 104.114C6.52153 104.124 6.52066 104.129 6.52017 104.132C6.51878 104.142 6.52305 104.122 6.52474 104.115C6.52936 104.094 6.53585 104.06 6.54059 104.036C6.56301 103.919 6.58338 103.81 6.60667 103.685C6.67393 103.327 6.74469 102.956 6.81649 102.593C6.88856 102.229 6.96262 101.864 7.03851 101.5C7.11437 101.135 7.19129 100.776 7.27085 100.412C7.29603 100.296 7.32102 100.182 7.34695 100.065C7.2768 100.321 7.20847 100.588 7.13883 100.87C7.08321 101.096 7.02654 101.332 6.96821 101.579C6.94525 101.677 6.9183 101.786 6.88571 101.923C6.82293 102.185 6.74327 102.528 6.6613 102.938C6.62039 103.143 6.57853 103.367 6.53748 103.609C6.51766 103.725 6.49627 103.858 6.47702 103.98C6.47133 104.016 6.4676 104.039 6.46224 104.072C6.45953 104.089 6.45726 104.103 6.45569 104.112C6.45523 104.114 6.45337 104.124 6.45389 104.122C6.45411 104.12 6.45469 104.117 6.45651 104.11C6.45744 104.106 6.45869 104.101 6.46071 104.093C6.4596 104.098 6.46524 104.072 6.48241 104.027C6.49297 104.002 6.50328 103.97 6.54819 103.9C6.59989 103.85 6.66306 103.642 7.09575 103.596C7.30421 103.586 7.49891 103.697 7.58478 103.785C7.67683 103.876 7.70874 103.944 7.73211 103.992C7.77401 104.089 7.77684 104.127 7.78344 104.158C7.79356 104.227 7.78776 104.19 7.78972 104.204C7.79619 104.319 7.79158 104.255 7.79312 104.258C7.79355 104.248 7.79448 104.231 7.79551 104.213C7.79697 104.187 7.79898 104.155 7.80149 104.115C7.80192 104.108 7.80236 104.101 7.80281 104.094ZM7.99283 97.1619C8.0151 97.0784 8.03787 96.9952 8.06115 96.9129C8.12755 96.6781 8.19608 96.4529 8.26671 96.2309C8.31598 96.076 8.36668 95.9221 8.41739 95.7712C8.43871 95.7077 8.46018 95.6443 8.4817 95.5814C8.5177 95.4762 8.55408 95.3709 8.59031 95.2676C8.31509 95.9864 8.0726 96.6994 7.84879 97.4488C7.84584 97.4586 7.84299 97.4686 7.84003 97.4786C7.89153 97.3707 7.94302 97.2633 7.99283 97.1619Z" fill="#2A2A2A"/>
</svg>
