<svg width="24" height="24" viewBox="0 0 24 24" fill="none" xmlns="http://www.w3.org/2000/svg">
<path d="M12.0002 10C14.2094 10 16.0002 8.20914 16.0002 6C16.0002 3.79086 14.2094 2 12.0002 2C9.79111 2 8.00024 3.79086 8.00024 6C8.00024 8.20914 9.79111 10 12.0002 10Z" stroke="#2C299A" stroke-width="1.125"/>
<path d="M19.9985 18C19.9998 17.836 20.0005 17.6693 20.0005 17.5C20.0005 15.015 16.4185 13 12.0005 13C7.58249 13 4.00049 15.015 4.00049 17.5C4.00049 19.985 4.00049 22 12.0005 22C14.2315 22 15.8405 21.843 17.0005 21.563" stroke="#2C299A" stroke-width="1.125" stroke-linecap="round"/>
</svg>
