<svg width="24" height="24" viewBox="0 0 24 24" fill="none" xmlns="http://www.w3.org/2000/svg">
<path fill-rule="evenodd" clip-rule="evenodd" d="M15.679 1.67994C15.7211 1.76915 15.7451 1.86579 15.7498 1.96431C15.7545 2.06284 15.7397 2.16132 15.7062 2.25412C15.6728 2.34691 15.6214 2.4322 15.5549 2.5051C15.4885 2.578 15.4083 2.63707 15.319 2.67894L9.855 5.24994H14.056C15.894 5.24994 17.35 5.24994 18.489 5.40294C19.661 5.56094 20.61 5.89294 21.359 6.64094C22.107 7.38994 22.439 8.33894 22.597 9.51094C22.75 10.6509 22.75 12.1059 22.75 13.9439V14.0569C22.75 15.8939 22.75 17.3499 22.597 18.4889C22.439 19.6619 22.107 20.6109 21.359 21.3589C20.61 22.1069 19.661 22.4389 18.489 22.5969C17.349 22.7499 15.894 22.7499 14.056 22.7499H9.944C8.106 22.7499 6.65 22.7499 5.511 22.5969C4.339 22.4389 3.39 22.1069 2.641 21.3589C1.893 20.6109 1.561 19.6619 1.403 18.4889C1.25 17.3499 1.25 15.8939 1.25 14.0569V13.9439C1.25 12.1059 1.25 10.6499 1.403 9.51094C1.561 8.33894 1.893 7.38994 2.641 6.64094C3.39 5.89294 4.339 5.56094 5.511 5.40294C5.715 5.37627 5.92933 5.3536 6.154 5.33494L6.181 5.32194L14.681 1.32194C14.861 1.23721 15.0672 1.22744 15.2543 1.29476C15.4415 1.36208 15.5943 1.501 15.679 1.68094M5.71 6.88994C4.704 7.02494 4.124 7.27894 3.7 7.70194C3.278 8.12494 3.024 8.70494 2.889 9.71094C2.751 10.7389 2.749 12.0929 2.749 14.0009C2.749 15.9069 2.751 17.2609 2.889 18.2889C3.024 19.2949 3.278 19.8749 3.701 20.2989C4.124 20.7209 4.704 20.9749 5.71 21.1099C6.738 21.2489 8.092 21.2499 9.999 21.2499H13.999C15.906 21.2499 17.261 21.2489 18.289 21.1099C19.294 20.9749 19.874 20.7209 20.297 20.2979C20.72 19.8749 20.974 19.2949 21.109 18.2889C21.247 17.2619 21.249 15.9069 21.249 13.9999C21.249 12.0929 21.247 10.7389 21.109 9.71094C20.974 8.70494 20.72 8.12494 20.297 7.70194C19.874 7.27894 19.294 7.02494 18.288 6.88994C17.261 6.75194 15.906 6.74994 13.999 6.74994H9.999C8.092 6.74994 6.739 6.75194 5.71 6.88994ZM8 11.7499C7.70453 11.7499 7.41194 11.8081 7.13896 11.9212C6.86598 12.0343 6.61794 12.2 6.40901 12.4089C6.20008 12.6179 6.03434 12.8659 5.92127 13.1389C5.8082 13.4119 5.75 13.7045 5.75 13.9999C5.75 14.2954 5.8082 14.588 5.92127 14.861C6.03434 15.134 6.20008 15.382 6.40901 15.5909C6.61794 15.7999 6.86598 15.9656 7.13896 16.0787C7.41194 16.1917 7.70453 16.2499 8 16.2499C8.59674 16.2499 9.16903 16.0129 9.59099 15.5909C10.0129 15.169 10.25 14.5967 10.25 13.9999C10.25 13.4032 10.0129 12.8309 9.59099 12.4089C9.16903 11.987 8.59674 11.7499 8 11.7499ZM4.25 13.9999C4.25 13.0054 4.64509 12.0515 5.34835 11.3483C6.05161 10.645 7.00544 10.2499 8 10.2499C8.99456 10.2499 9.94839 10.645 10.6517 11.3483C11.3549 12.0515 11.75 13.0054 11.75 13.9999C11.75 14.9945 11.3549 15.9483 10.6517 16.6516C9.94839 17.3549 8.99456 17.7499 8 17.7499C7.00544 17.7499 6.05161 17.3549 5.34835 16.6516C4.64509 15.9483 4.25 14.9945 4.25 13.9999ZM12.75 10.9999C12.75 10.801 12.829 10.6103 12.9697 10.4696C13.1103 10.329 13.3011 10.2499 13.5 10.2499H19C19.1989 10.2499 19.3897 10.329 19.5303 10.4696C19.671 10.6103 19.75 10.801 19.75 10.9999C19.75 11.1989 19.671 11.3896 19.5303 11.5303C19.3897 11.6709 19.1989 11.7499 19 11.7499H13.5C13.3011 11.7499 13.1103 11.6709 12.9697 11.5303C12.829 11.3896 12.75 11.1989 12.75 10.9999ZM12.75 13.9999C12.75 13.801 12.829 13.6103 12.9697 13.4696C13.1103 13.329 13.3011 13.2499 13.5 13.2499H19C19.1989 13.2499 19.3897 13.329 19.5303 13.4696C19.671 13.6103 19.75 13.801 19.75 13.9999C19.75 14.1989 19.671 14.3896 19.5303 14.5303C19.3897 14.6709 19.1989 14.7499 19 14.7499H13.5C13.3011 14.7499 13.1103 14.6709 12.9697 14.5303C12.829 14.3896 12.75 14.1989 12.75 13.9999ZM12.75 16.9999C12.75 16.801 12.829 16.6103 12.9697 16.4696C13.1103 16.329 13.3011 16.2499 13.5 16.2499H19C19.1989 16.2499 19.3897 16.329 19.5303 16.4696C19.671 16.6103 19.75 16.801 19.75 16.9999C19.75 17.1989 19.671 17.3896 19.5303 17.5303C19.3897 17.6709 19.1989 17.7499 19 17.7499H13.5C13.3011 17.7499 13.1103 17.6709 12.9697 17.5303C12.829 17.3896 12.75 17.1989 12.75 16.9999Z" fill="white"/>
</svg>
