<svg width="24" height="24" viewBox="0 0 24 24" fill="none" xmlns="http://www.w3.org/2000/svg">
<path fill-rule="evenodd" clip-rule="evenodd" d="M10.581 1.25006H10.561C10.447 1.25006 10.359 1.25006 10.275 1.25506C9.75543 1.28664 9.25549 1.46504 8.8333 1.76951C8.41111 2.07399 8.084 2.49203 7.89 2.97506C7.859 3.05206 7.831 3.13506 7.795 3.24406L7.789 3.26306L7.763 3.34006L7.734 3.42506C7.574 3.86706 7.043 4.23606 6.481 4.25006L4.661 4.34006C3.875 4.43206 3.202 4.62806 2.633 5.09106C2.4354 5.25396 2.2539 5.43546 2.091 5.63306C1.628 6.20306 1.431 6.87506 1.339 7.66206C1.25 8.42206 1.25 9.37706 1.25 10.5621V10.6401C1.25 10.9241 1.25 11.1901 1.273 11.4141C1.298 11.6621 1.356 11.9261 1.513 12.1801C1.565 12.2627 1.62333 12.3407 1.688 12.4141C1.857 12.6051 2.053 12.7291 2.25 12.8201C2.253 14.4361 2.274 16.0681 2.419 17.4661C2.504 18.2861 2.634 19.0551 2.841 19.7111C3.044 20.3561 3.344 20.9671 3.82 21.3891C4.643 22.1211 5.68 22.4441 6.973 22.5991C8.243 22.7501 9.871 22.7501 11.949 22.7501H12.051C14.129 22.7501 15.757 22.7501 17.027 22.5981C18.32 22.4441 19.357 22.1211 20.18 21.3891C20.656 20.9671 20.956 20.3561 21.16 19.7111C21.366 19.0551 21.496 18.2861 21.581 17.4661C21.726 16.0681 21.747 14.4361 21.75 12.8201C22.0539 12.6852 22.3103 12.4623 22.486 12.1801C22.644 11.9261 22.702 11.6621 22.727 11.4141C22.75 11.1901 22.75 10.9241 22.75 10.6401V10.5621C22.75 9.37706 22.75 8.42206 22.66 7.66206C22.568 6.87506 22.372 6.20206 21.909 5.63306C21.7461 5.43546 21.5646 5.25396 21.367 5.09106C20.797 4.62806 20.125 4.43106 19.338 4.33906L17.52 4.25006C16.958 4.23606 16.427 3.86706 16.267 3.42506L16.238 3.34006L16.206 3.24306C16.17 3.13606 16.143 3.05206 16.111 2.97406C15.9168 2.49122 15.5897 2.07338 15.1675 1.76909C14.7453 1.4648 14.2455 1.28656 13.726 1.25506C13.6311 1.25068 13.536 1.24901 13.441 1.25006H10.581ZM7.571 5.75006H16.43C17.652 5.75006 18.508 5.75206 19.163 5.82906C19.809 5.90506 20.162 6.04506 20.42 6.25506C20.54 6.35239 20.6483 6.46072 20.745 6.58006C20.955 6.83806 21.095 7.19106 21.171 7.83706C21.249 8.49906 21.25 9.36606 21.25 10.6091C21.25 10.9351 21.25 11.1241 21.235 11.2631C21.2327 11.3055 21.225 11.3475 21.212 11.3881L21.188 11.4211C21.1526 11.4452 21.1143 11.4647 21.074 11.4791C20.945 11.5331 20.764 11.5881 20.452 11.6811L15.25 13.2421V13.0001C15.25 12.3101 14.69 11.7501 14 11.7501H10C9.31 11.7501 8.75 12.3101 8.75 13.0001V13.2421L3.548 11.6821C3.33762 11.6241 3.13006 11.5564 2.926 11.4791C2.88567 11.4647 2.84736 11.4452 2.812 11.4211L8.75 13.2421L2.788 11.3881C2.77505 11.3475 2.76732 11.3055 2.765 11.2631C2.74981 11.0454 2.74481 10.8272 2.75 10.6091C2.75 9.36606 2.751 8.49906 2.829 7.83706C2.905 7.19106 3.045 6.83806 3.255 6.58006C3.35221 6.46114 3.46109 6.35227 3.58 6.25506C3.838 6.04506 4.191 5.90506 4.837 5.82906C5.492 5.75206 6.348 5.75006 7.571 5.75006ZM10.58 2.75006C10.437 2.75006 10.397 2.75006 10.365 2.75206C10.1288 2.76645 9.90159 2.84757 9.7097 2.986C9.51781 3.12443 9.36915 3.31448 9.281 3.53406C9.25585 3.60108 9.23251 3.66878 9.211 3.73706L9.182 3.82206L9.144 3.93506C9.104 4.04439 9.05733 4.14939 9.004 4.25006H14.994C14.9215 4.11321 14.862 3.96993 14.816 3.82206L14.788 3.73706C14.7665 3.66878 14.7431 3.60108 14.718 3.53406C14.6298 3.31433 14.481 3.12418 14.2889 2.98574C14.0968 2.8473 13.8693 2.76626 13.633 2.75206C13.5614 2.74946 13.4897 2.7488 13.418 2.75006H10.58ZM3.752 13.3091C3.759 14.7461 3.788 16.1261 3.911 17.3121C3.991 18.0821 4.107 18.7391 4.271 19.2601C4.439 19.7901 4.633 20.1051 4.816 20.2681C5.311 20.7081 5.994 20.9711 7.151 21.1081C8.321 21.2481 9.86 21.2501 12 21.2501C14.14 21.2501 15.678 21.2491 16.849 21.1091C18.006 20.9711 18.689 20.7071 19.184 20.2681C19.367 20.1051 19.561 19.7901 19.729 19.2601C19.893 18.7401 20.009 18.0821 20.089 17.3121C20.212 16.1261 20.241 14.7451 20.248 13.3091L15.25 14.8081V15.1621C15.25 15.6721 14.939 16.1321 14.464 16.3221L13.764 16.6021C12.6316 17.055 11.3684 17.055 10.236 16.6021L9.536 16.3221C9.3041 16.2294 9.10528 16.0693 8.96518 15.8625C8.82509 15.6558 8.75014 15.4118 8.75 15.1621V14.8081L3.752 13.3091ZM10.25 13.2501V14.9921L10.793 15.2091C11.568 15.5191 12.433 15.5191 13.207 15.2091L13.75 14.9921V13.2501H10.25Z" fill="white"/>
</svg>
