<svg width="25" height="24" viewBox="0 0 25 24" fill="none" xmlns="http://www.w3.org/2000/svg">
<path fill-rule="evenodd" clip-rule="evenodd" d="M6.124 4.42407C4.465 5.18207 3.25 6.98607 3.25 9.13707C3.25 11.3341 4.15 13.0281 5.438 14.4801C6.501 15.6761 7.787 16.6681 9.041 17.6341C9.33967 17.8641 9.63467 18.0934 9.926 18.3221C10.452 18.7371 10.921 19.1001 11.374 19.3651C11.827 19.6301 12.19 19.7501 12.5 19.7501C12.81 19.7501 13.174 19.6301 13.626 19.3651C14.079 19.1001 14.548 18.7371 15.074 18.3221C15.3653 18.0927 15.6603 17.8637 15.959 17.6351C17.213 16.6671 18.499 15.6761 19.562 14.4801C20.851 13.0281 21.75 11.3341 21.75 9.13707C21.75 6.98707 20.535 5.18207 18.876 4.42407C17.264 3.68707 15.098 3.88207 13.04 6.02107C12.97 6.09366 12.8862 6.15139 12.7934 6.19083C12.7006 6.23026 12.6008 6.25059 12.5 6.25059C12.3992 6.25059 12.2994 6.23026 12.2066 6.19083C12.1138 6.15139 12.03 6.09366 11.96 6.02107C9.902 3.88207 7.736 3.68707 6.124 4.42407ZM12.5 4.46007C10.188 2.39007 7.599 2.10007 5.5 3.05907C3.286 4.07407 1.75 6.42607 1.75 9.13807C1.75 11.8031 2.86 13.8371 4.317 15.4771C5.483 16.7901 6.91 17.8891 8.171 18.8591C8.45767 19.0791 8.733 19.2931 8.997 19.5011C9.51 19.9051 10.06 20.3351 10.617 20.6611C11.174 20.9871 11.81 21.2511 12.5 21.2511C13.19 21.2511 13.826 20.9861 14.383 20.6611C14.941 20.3351 15.49 19.9051 16.003 19.5011C16.267 19.2931 16.5423 19.0791 16.829 18.8591C18.089 17.8891 19.517 16.7891 20.683 15.4771C22.14 13.8371 23.25 11.8031 23.25 9.13807C23.25 6.42607 21.715 4.07407 19.5 3.06107C17.401 2.10107 14.812 2.39107 12.5 4.46007Z" fill="#625DF5"/>
</svg>
