<svg width="24" height="24" viewBox="0 0 24 24" fill="none" xmlns="http://www.w3.org/2000/svg">
<path d="M11.9551 5.65903C11.9961 4.54303 12.3101 3.56303 12.8881 2.74403C13.4696 1.92053 14.4311 1.33553 15.7466 1.00403L15.7741 1.12553V1.33753C15.7741 1.81803 15.6576 2.36953 15.4276 2.97553C15.1861 3.56253 14.8091 4.11553 14.3086 4.61403C13.8406 5.05353 13.4071 5.34403 13.0241 5.47553C12.8981 5.51353 12.7246 5.55053 12.5151 5.58403C12.3291 5.61303 12.1424 5.63803 11.9551 5.65903Z" fill="#2A2A2A"/>
<path d="M12.1751 7.31451C10.6891 7.31451 9.6571 5.99951 8.1906 5.99951C6.7246 5.99951 3.7041 7.34751 3.7041 11.9995C3.7041 16.6525 6.3866 19.6495 6.6866 19.9995C6.9866 20.35 7.6801 21.2495 8.7551 21.2495C9.8301 21.2495 11.0066 20.395 12.1751 20.395C13.3436 20.395 14.8146 21.25 15.7751 21.25C16.7351 21.25 17.1301 20.8585 17.7831 20.183C18.4361 19.5075 19.6831 17.448 20.1181 16.211C19.4016 15.784 17.5011 14.626 17.5011 12C17.5011 10.2497 18.1408 8.79551 19.4201 7.63751C18.5808 6.54585 17.6074 6.00001 16.5001 6.00001C14.8386 6.00001 13.6616 7.31451 12.1751 7.31451Z" fill="#2A2A2A" stroke="#2A2A2A" stroke-width="2" stroke-linejoin="round"/>
</svg>
