<svg width="24" height="24" viewBox="0 0 24 24" fill="none" xmlns="http://www.w3.org/2000/svg">
<path d="M11.9551 5.65903C11.9961 4.54303 12.3101 3.56303 12.8881 2.74403C13.4696 1.92053 14.4311 1.33553 15.7466 1.00403L15.7741 1.12553V1.33753C15.7741 1.81803 15.6576 2.36953 15.4276 2.97553C15.1861 3.56253 14.8091 4.11553 14.3086 4.61403C13.8406 5.05353 13.4071 5.34403 13.0241 5.47553C12.8981 5.51353 12.7246 5.55053 12.5151 5.58403C12.3291 5.61303 12.1424 5.63803 11.9551 5.65903Z" fill="#D2D2D3"/>
<path d="M12.1741 7.31451C10.6881 7.31451 9.65613 5.99951 8.18963 5.99951C6.72363 5.99951 3.70312 7.34751 3.70312 11.9995C3.70312 16.6525 6.38563 19.6495 6.68563 19.9995C6.98563 20.35 7.67913 21.2495 8.75413 21.2495C9.82913 21.2495 11.0056 20.395 12.1741 20.395C13.3426 20.395 14.8136 21.25 15.7741 21.25C16.7341 21.25 17.1291 20.8585 17.7821 20.183C18.4351 19.5075 19.6821 17.448 20.1171 16.211C19.4006 15.784 17.5001 14.626 17.5001 12C17.5001 10.2497 18.1398 8.79551 19.4191 7.63751C18.5798 6.54585 17.6065 6.00001 16.4991 6.00001C14.8376 6.00001 13.6606 7.31451 12.1741 7.31451Z" fill="#D2D2D3" stroke="#D2D2D3" stroke-width="2" stroke-linejoin="round"/>
</svg>
