<svg width="24" height="24" viewBox="0 0 24 24" fill="none" xmlns="http://www.w3.org/2000/svg">
<path d="M16.88 2.88001C16.7639 2.7636 16.626 2.67124 16.4741 2.60822C16.3223 2.54521 16.1595 2.51277 15.995 2.51277C15.8306 2.51277 15.6678 2.54521 15.516 2.60822C15.3641 2.67124 15.2262 2.7636 15.11 2.88001L6.70004 11.29C6.60733 11.3825 6.53379 11.4924 6.4836 11.6134C6.43342 11.7344 6.40759 11.864 6.40759 11.995C6.40759 12.126 6.43342 12.2557 6.4836 12.3766C6.53379 12.4976 6.60733 12.6075 6.70004 12.7L15.11 21.11C15.6 21.6 16.39 21.6 16.88 21.11C17.37 20.62 17.37 19.83 16.88 19.34L9.54004 12L16.89 4.65001C17.37 4.16001 17.37 3.37001 16.88 2.88001Z" fill="#585858"/>
</svg>
