<svg width="24" height="24" viewBox="0 0 24 24" fill="none" xmlns="http://www.w3.org/2000/svg">
<path fill-rule="evenodd" clip-rule="evenodd" d="M17.9522 2.874C16.1402 2.468 13.9352 3.074 12.2942 4.714C11.1262 5.882 10.2152 7.624 9.86421 9.328C9.73336 9.92999 9.68491 10.547 9.72021 11.162C9.90521 10.808 10.1202 10.449 10.3482 10.098C11.3192 8.605 12.6642 7.055 13.5772 6.142C14.4912 5.228 15.8482 4.076 17.1562 3.3C17.4172 3.145 17.6842 3 17.9522 2.874ZM21.0792 2.921C18.4792 0.320999 13.9922 0.895999 11.2332 3.654C9.84321 5.044 8.80121 7.057 8.39521 9.025C8.28031 9.57789 8.2177 10.1404 8.20821 10.705L2.30421 16.61C1.96306 16.9424 1.69132 17.3392 1.50475 17.7774C1.31818 18.2156 1.22049 18.6865 1.21736 19.1628C1.21423 19.6391 1.30572 20.1112 1.48652 20.5518C1.66732 20.9925 1.93382 21.3928 2.27057 21.7296C2.60732 22.0664 3.00761 22.333 3.44821 22.5139C3.8888 22.6948 4.36094 22.7864 4.83721 22.7833C5.31348 22.7803 5.78441 22.6827 6.22267 22.4962C6.66093 22.3097 7.05778 22.0381 7.39021 21.697L13.2962 15.791C13.8605 15.7818 14.4226 15.7195 14.9752 15.605C16.9432 15.198 18.9562 14.156 20.3462 12.766C23.1052 10.008 23.6792 5.522 21.0792 2.921ZM20.0192 3.981C19.9732 3.937 19.8412 3.847 19.4322 3.931C19.0292 4.014 18.5112 4.241 17.9222 4.591C16.7522 5.284 15.4932 6.347 14.6372 7.203C13.7812 8.059 12.5072 9.53 11.6052 10.916C11.1512 11.614 10.8202 12.247 10.6682 12.746C10.5932 12.993 10.5742 13.168 10.5822 13.278C10.5832 13.3098 10.5893 13.3411 10.6002 13.371L10.6102 13.389L10.6282 13.399C10.6583 13.4103 10.6901 13.4167 10.7222 13.418C10.8322 13.426 11.0062 13.408 11.2552 13.331C11.7532 13.179 12.3862 12.849 13.0852 12.395C14.4702 11.493 15.9402 10.22 16.7972 9.363C17.6542 8.507 18.7172 7.248 19.4102 6.079C19.7602 5.489 19.9862 4.972 20.0702 4.569C20.1532 4.159 20.0632 4.027 20.0182 3.982M12.8382 14.281C13.1922 14.096 13.5502 13.881 13.9012 13.653C15.3942 12.683 16.9442 11.338 17.8572 10.425C18.7722 9.51 19.9232 8.153 20.6992 6.845C20.8542 6.585 20.9992 6.317 21.1252 6.049C21.5312 7.861 20.9252 10.066 19.2852 11.707C18.1172 12.874 16.3752 13.785 14.6702 14.137C14.0689 14.2677 13.4526 14.3161 12.8382 14.281ZM11.4212 15.545C10.7156 15.3419 10.0721 14.9655 9.54921 14.45C9.03438 13.9276 8.65832 13.2848 8.45521 12.58L3.36421 17.67C3.16682 17.8641 3.00983 18.0955 2.9023 18.3506C2.79477 18.6057 2.73883 18.8797 2.73771 19.1565C2.73658 19.4334 2.7903 19.7077 2.89576 19.9637C3.00121 20.2197 3.15632 20.4523 3.35213 20.6481C3.54795 20.8438 3.78058 20.9989 4.03662 21.1042C4.29266 21.2096 4.56703 21.2632 4.8439 21.262C5.12077 21.2608 5.39466 21.2048 5.64976 21.0971C5.90486 20.9895 6.13613 20.8325 6.33021 20.635L11.4212 15.545Z" fill="white"/>
</svg>
