<svg width="24" height="24" viewBox="0 0 24 24" fill="none" xmlns="http://www.w3.org/2000/svg">
<path d="M16.03 10.03C16.1037 9.96137 16.1628 9.87857 16.2037 9.78657C16.2447 9.69457 16.2668 9.59526 16.2686 9.49455C16.2703 9.39385 16.2518 9.29382 16.2141 9.20043C16.1764 9.10705 16.1202 9.02221 16.049 8.95099C15.9778 8.87978 15.893 8.82363 15.7996 8.78591C15.7062 8.74819 15.6061 8.72966 15.5054 8.73144C15.4047 8.73322 15.3054 8.75526 15.2134 8.79625C15.1214 8.83724 15.0386 8.89635 14.97 8.97003L10.5 13.44L9.02997 11.97C8.88779 11.8376 8.69975 11.7654 8.50545 11.7689C8.31115 11.7723 8.12576 11.851 7.98835 11.9884C7.85093 12.1258 7.77222 12.3112 7.76879 12.5055C7.76537 12.6998 7.83749 12.8879 7.96997 13.03L9.96997 15.03C10.1106 15.1705 10.3012 15.2494 10.5 15.2494C10.6987 15.2494 10.8893 15.1705 11.03 15.03L16.03 10.03Z" fill="#625DF5"/>
<path fill-rule="evenodd" clip-rule="evenodd" d="M12 1.25C6.063 1.25 1.25 6.063 1.25 12C1.25 17.937 6.063 22.75 12 22.75C17.937 22.75 22.75 17.937 22.75 12C22.75 6.063 17.937 1.25 12 1.25ZM2.75 12C2.75 9.54675 3.72455 7.19397 5.45926 5.45926C7.19397 3.72455 9.54675 2.75 12 2.75C14.4533 2.75 16.806 3.72455 18.5407 5.45926C20.2754 7.19397 21.25 9.54675 21.25 12C21.25 14.4533 20.2754 16.806 18.5407 18.5407C16.806 20.2754 14.4533 21.25 12 21.25C9.54675 21.25 7.19397 20.2754 5.45926 18.5407C3.72455 16.806 2.75 14.4533 2.75 12Z" fill="#625DF5"/>
</svg>
