<svg width="24" height="24" viewBox="0 0 24 24" fill="none" xmlns="http://www.w3.org/2000/svg">
<path d="M15.365 12.28C15.365 14.26 13.765 15.86 11.785 15.86C9.805 15.86 8.205 14.26 8.205 12.28C8.205 10.3 9.805 8.7 11.785 8.7C13.765 8.7 15.365 10.3 15.365 12.28Z" stroke="#8C8C8E" stroke-width="1.5" stroke-linecap="round" stroke-linejoin="round"/>
<path d="M11.785 20.55C15.315 20.55 18.605 18.47 20.895 14.87C21.795 13.46 21.795 11.09 20.895 9.68C18.605 6.08 15.315 4 11.785 4C8.255 4 4.965 6.08 2.675 9.68C1.775 11.09 1.775 13.46 2.675 14.87C4.965 18.47 8.255 20.55 11.785 20.55Z" stroke="#8C8C8E" stroke-width="1.5" stroke-linecap="round" stroke-linejoin="round"/>
</svg>
