<svg width="24" height="24" viewBox="0 0 24 24" fill="none" xmlns="http://www.w3.org/2000/svg">
<path d="M7 15C7 15.2652 6.89464 15.5196 6.70711 15.7071C6.51957 15.8946 6.26522 16 6 16C5.73478 16 5.48043 15.8946 5.29289 15.7071C5.10536 15.5196 5 15.2652 5 15C5 14.7348 5.10536 14.4804 5.29289 14.2929C5.48043 14.1054 5.73478 14 6 14C6.26522 14 6.51957 14.1054 6.70711 14.2929C6.89464 14.4804 7 14.7348 7 15ZM10 15C10 15.2652 9.89464 15.5196 9.70711 15.7071C9.51957 15.8946 9.26522 16 9 16C8.73478 16 8.48043 15.8946 8.29289 15.7071C8.10536 15.5196 8 15.2652 8 15C8 14.7348 8.10536 14.4804 8.29289 14.2929C8.48043 14.1054 8.73478 14 9 14C9.26522 14 9.51957 14.1054 9.70711 14.2929C9.89464 14.4804 10 14.7348 10 15Z" fill="white"/>
<path d="M2 15C2 13.114 2 12.172 2.586 11.586C3.172 11 4.114 11 6 11H18C19.886 11 20.828 11 21.414 11.586C22 12.172 22 13.114 22 15C22 16.886 22 17.828 21.414 18.414C20.828 19 19.886 19 18 19H6C4.114 19 3.172 19 2.586 18.414C2 17.828 2 16.886 2 15Z" stroke="white" stroke-width="1.5"/>
<path d="M7 11L3 3.99999M17 11L21 3.99999M14 15H18M17.167 5.39699C16.7507 4.39144 16.0455 3.53195 15.1406 2.92724C14.2357 2.32253 13.1718 1.99976 12.0835 1.99976C10.9952 1.99976 9.93128 2.32253 9.02641 2.92724C8.12154 3.53195 7.41634 4.39144 7 5.39699" stroke="white" stroke-width="1.5" stroke-linecap="round"/>
<path d="M14.9651 6.65792C14.7827 6.03534 14.4035 5.48861 13.8843 5.09966C13.3651 4.71071 12.7338 4.50049 12.0851 4.50049C11.4363 4.50049 10.8051 4.71071 10.2858 5.09966C9.76663 5.48861 9.38744 6.03534 9.20508 6.65792" stroke="white" stroke-width="1.5" stroke-linecap="round"/>
<path d="M13.084 7C13.084 7.26522 12.9786 7.51957 12.7911 7.70711C12.6036 7.89464 12.3492 8 12.084 8C11.8188 8 11.5644 7.89464 11.3769 7.70711C11.1893 7.51957 11.084 7.26522 11.084 7C11.084 6.73478 11.1893 6.48043 11.3769 6.29289C11.5644 6.10536 11.8188 6 12.084 6C12.3492 6 12.6036 6.10536 12.7911 6.29289C12.9786 6.48043 13.084 6.73478 13.084 7Z" fill="white"/>
</svg>
