<svg width="24" height="24" viewBox="0 0 24 24" fill="none" xmlns="http://www.w3.org/2000/svg">
<path fill-rule="evenodd" clip-rule="evenodd" d="M9.14709 1.25H14.8541C15.7401 1.25 16.4611 1.25 17.0481 1.31C17.6601 1.371 18.1941 1.502 18.6881 1.805C18.8434 1.901 18.9914 2.00767 19.1321 2.125C19.5761 2.498 19.8691 2.963 20.1221 3.524C20.3631 4.062 20.5921 4.746 20.8721 5.586L20.8841 5.623L20.9341 5.771C21.0811 6.214 21.2131 6.608 21.2811 6.936C21.3521 7.283 21.3831 7.683 21.1981 8.079C21.1051 8.279 20.9751 8.459 20.8161 8.609C20.4991 8.91 20.1091 9.009 19.7581 9.049C19.5774 9.06967 19.3741 9.082 19.1481 9.086L17.7361 18.735C17.6221 19.511 17.5271 20.162 17.3841 20.676C17.2341 21.221 17.0061 21.704 16.5701 22.081C16.1341 22.458 15.6231 22.613 15.0621 22.683C14.5321 22.75 13.8741 22.75 13.0901 22.75H10.9101C10.1261 22.75 9.46809 22.75 8.93809 22.683C8.37709 22.613 7.86609 22.457 7.43009 22.081C6.99409 21.704 6.76709 21.221 6.61609 20.676C6.47309 20.162 6.37809 19.511 6.26409 18.735L4.85109 9.085C4.64763 9.08367 4.44436 9.07199 4.24209 9.05C3.89109 9.008 3.50209 8.91 3.18409 8.61C3.02539 8.45782 2.89592 8.27785 2.80209 8.079C2.61709 7.683 2.64809 7.283 2.71909 6.936C2.78709 6.608 2.91909 6.214 3.06709 5.771L3.08009 5.731L3.12809 5.586C3.40809 4.746 3.63709 4.062 3.87909 3.524C4.13109 2.963 4.42509 2.498 4.86909 2.126C5.00909 2.008 5.15709 1.90133 5.31309 1.806C5.80609 1.502 6.34009 1.371 6.95209 1.309C7.54009 1.25 8.26109 1.25 9.14709 1.25ZM6.36709 9.09L6.68409 11.25H17.3161L17.6321 9.09H6.36709ZM17.0971 12.75H6.90309L7.41509 16.25H16.5831L17.0971 12.75ZM16.3641 17.75H7.63609L7.74109 18.47C7.86409 19.306 7.94609 19.862 8.06109 20.275C8.17009 20.667 8.28409 20.835 8.41109 20.945C8.53809 21.055 8.72109 21.145 9.12609 21.195C9.55109 21.249 10.1131 21.25 10.9571 21.25H13.0431C13.8871 21.25 14.4501 21.249 14.8741 21.195C15.2781 21.145 15.4621 21.055 15.5891 20.945C15.7161 20.835 15.8301 20.667 15.9391 20.275C16.0541 19.862 16.1371 19.305 16.2591 18.471L16.3641 17.75ZM7.10309 2.802C6.61509 2.851 6.32809 2.942 6.09909 3.083C6.00493 3.13988 5.91563 3.20443 5.83209 3.276C5.62509 3.449 5.44809 3.692 5.24709 4.139C5.03909 4.6 4.83409 5.212 4.53909 6.098L4.50309 6.205C4.33709 6.701 4.23609 7.009 4.18809 7.239C4.17091 7.30865 4.16317 7.38029 4.16509 7.452C4.17754 7.47526 4.19301 7.49678 4.21109 7.516C4.27848 7.53994 4.34877 7.55474 4.42009 7.56C4.65309 7.588 4.97709 7.59 5.50009 7.59H18.5001C19.0231 7.59 19.3471 7.588 19.5801 7.56C19.6517 7.55483 19.7224 7.54003 19.7901 7.516C19.8078 7.49672 19.8229 7.47521 19.8351 7.452C19.837 7.38029 19.8293 7.30865 19.8121 7.239C19.7641 7.009 19.6621 6.701 19.4971 6.205L19.4621 6.098C19.1661 5.212 18.9611 4.6 18.7531 4.139C18.5531 3.692 18.3751 3.449 18.1681 3.276C18.0845 3.20443 17.9952 3.13988 17.9011 3.083C17.6711 2.943 17.3851 2.851 16.8971 2.802C16.3941 2.751 15.7491 2.75 14.8151 2.75H9.18509C8.25109 2.75 7.60609 2.75 7.10309 2.802Z" fill="black"/>
</svg>
