<svg width="25" height="24" viewBox="0 0 25 24" fill="none" xmlns="http://www.w3.org/2000/svg">
<path fill-rule="evenodd" clip-rule="evenodd" d="M19.3335 2.75C19.038 2.75 18.7454 2.8082 18.4725 2.92127C18.1995 3.03434 17.9514 3.20008 17.7425 3.40901C17.5336 3.61794 17.3678 3.86598 17.2548 4.13896C17.1417 4.41194 17.0835 4.70453 17.0835 5C17.0835 5.29547 17.1417 5.58806 17.2548 5.86104C17.3678 6.13402 17.5336 6.38206 17.7425 6.59099C17.9514 6.79992 18.1995 6.96566 18.4725 7.07873C18.7454 7.1918 19.038 7.25 19.3335 7.25C19.9302 7.25 20.5025 7.01295 20.9245 6.59099C21.3464 6.16903 21.5835 5.59674 21.5835 5C21.5835 4.40326 21.3464 3.83097 20.9245 3.40901C20.5025 2.98705 19.9302 2.75 19.3335 2.75ZM15.5835 5C15.5835 4.00544 15.9786 3.05161 16.6818 2.34835C17.3851 1.64509 18.3389 1.25 19.3335 1.25C20.3281 1.25 21.2819 1.64509 21.9851 2.34835C22.6884 3.05161 23.0835 4.00544 23.0835 5C23.0835 5.99456 22.6884 6.94839 21.9851 7.65165C21.2819 8.35491 20.3281 8.75 19.3335 8.75C18.3389 8.75 17.3851 8.35491 16.6818 7.65165C15.9786 6.94839 15.5835 5.99456 15.5835 5ZM10.2775 3.25H13.3335C13.5324 3.25 13.7232 3.32902 13.8638 3.46967C14.0045 3.61032 14.0835 3.80109 14.0835 4C14.0835 4.19891 14.0045 4.38968 13.8638 4.53033C13.7232 4.67098 13.5324 4.75 13.3335 4.75H10.3335C8.4265 4.75 7.0725 4.752 6.0435 4.89C5.0385 5.025 4.4585 5.279 4.0355 5.702C3.6125 6.125 3.3585 6.705 3.2235 7.71C3.0855 8.738 3.0835 10.092 3.0835 11.999C3.0835 13.906 3.0855 15.261 3.2235 16.289C3.3585 17.294 3.6125 17.874 4.0355 18.297C4.4585 18.72 5.0385 18.974 6.0445 19.109C7.0725 19.247 8.4265 19.249 10.3335 19.249H14.3335C16.2405 19.249 17.5955 19.247 18.6235 19.109C19.6285 18.974 20.2085 18.72 20.6315 18.297C21.0545 17.874 21.3085 17.294 21.4435 16.288C21.5815 15.26 21.5835 13.906 21.5835 11.999C21.5835 11.626 21.5865 11.354 21.5885 11.119C21.5925 10.74 21.5955 10.461 21.5835 10.019C21.5782 9.82009 21.6521 9.62722 21.789 9.48281C21.9259 9.33841 22.1146 9.2543 22.3135 9.249C22.5124 9.2437 22.7053 9.31763 22.8497 9.45453C22.9941 9.59143 23.0782 9.78009 23.0835 9.979C23.0955 10.446 23.0925 10.764 23.0885 11.166C23.0865 11.4 23.0835 11.663 23.0835 11.999V12.055C23.0835 13.893 23.0835 15.349 22.9305 16.488C22.7725 17.66 22.4405 18.609 21.6925 19.358C20.9435 20.106 19.9945 20.438 18.8225 20.596C17.6825 20.749 16.2275 20.749 14.3895 20.749H10.2775C8.4395 20.749 6.9835 20.749 5.8445 20.596C4.6725 20.438 3.7235 20.106 2.9745 19.358C2.2265 18.609 1.8945 17.66 1.7365 16.488C1.5835 15.348 1.5835 13.893 1.5835 12.055V11.943C1.5835 10.105 1.5835 8.649 1.7365 7.51C1.8945 6.338 2.2265 5.389 2.9745 4.64C3.7235 3.892 4.6725 3.56 5.8445 3.402C6.9845 3.249 8.4395 3.25 10.2775 3.25ZM5.7575 7.519C5.88483 7.36629 6.0676 7.27039 6.26562 7.25238C6.46364 7.23438 6.66071 7.29575 6.8135 7.423L8.9735 9.223C9.9065 10 10.5535 10.538 11.1015 10.89C11.6305 11.23 11.9895 11.345 12.3345 11.345C12.6795 11.345 13.0385 11.231 13.5675 10.89C14.1145 10.538 14.7625 10 15.6955 9.223C15.7708 9.15715 15.8584 9.10702 15.9534 9.07556C16.0483 9.0441 16.1486 9.03194 16.2483 9.0398C16.348 9.04765 16.4451 9.07537 16.5339 9.12132C16.6227 9.16726 16.7015 9.23051 16.7655 9.30734C16.8295 9.38417 16.8775 9.47302 16.9067 9.56868C16.9359 9.66433 16.9456 9.76486 16.9354 9.86434C16.9251 9.96382 16.8951 10.0602 16.847 10.1479C16.799 10.2356 16.7338 10.3128 16.6555 10.375L16.6185 10.407C15.7315 11.145 15.0135 11.744 14.3785 12.152C13.7185 12.577 13.0755 12.845 12.3345 12.845C11.5935 12.845 10.9505 12.576 10.2895 12.152C9.6555 11.744 8.9375 11.145 8.0505 10.407L5.8535 8.577C5.77773 8.51394 5.71515 8.43656 5.66931 8.34929C5.62348 8.26202 5.5953 8.16657 5.58638 8.0684C5.57747 7.97023 5.58799 7.87127 5.61735 7.77717C5.64671 7.68307 5.69433 7.59468 5.7575 7.519Z" fill="#2A2A2A"/>
</svg>
