<svg width="24" height="24" viewBox="0 0 24 24" fill="none" xmlns="http://www.w3.org/2000/svg">
<path d="M20.27 16.265L20.975 12.185C21.0163 11.9458 21.005 11.7005 20.9416 11.4663C20.8783 11.232 20.7646 11.0144 20.6084 10.8286C20.4522 10.6429 20.2573 10.4935 20.0373 10.391C19.8173 10.2884 19.5776 10.2352 19.335 10.235H14.154C14.033 10.235 13.9136 10.2087 13.8039 10.1579C13.6941 10.1071 13.5968 10.033 13.5186 9.94082C13.4403 9.84861 13.3831 9.74049 13.3509 9.62395C13.3187 9.50741 13.3122 9.38525 13.332 9.26596L13.995 5.22096C14.102 4.56416 14.0714 3.89227 13.905 3.24796C13.8331 2.98196 13.6954 2.73836 13.5045 2.53964C13.3137 2.34092 13.0758 2.19349 12.813 2.11096L12.668 2.06396C12.3401 1.95906 11.9845 1.98338 11.674 2.13196C11.334 2.29596 11.086 2.59496 10.994 2.94996L10.518 4.78396C10.3667 5.36767 10.1465 5.9313 9.86196 6.46296C9.44696 7.23996 8.80496 7.86296 8.13696 8.43796L6.69796 9.67796C6.49833 9.85047 6.34241 10.0678 6.24299 10.3122C6.14356 10.5566 6.10346 10.8211 6.12596 11.084L6.93796 20.477C6.97375 20.8924 7.164 21.2793 7.47115 21.5612C7.7783 21.8432 8.18001 21.9997 8.59696 22H13.245C16.727 22 19.698 19.574 20.27 16.265Z" fill="white"/>
<path fill-rule="evenodd" clip-rule="evenodd" d="M2.96796 9.48509C3.16122 9.47664 3.35027 9.54319 3.49562 9.67084C3.64097 9.79849 3.73138 9.97736 3.74796 10.1701L4.71796 21.4061C4.73439 21.5734 4.71654 21.7423 4.6655 21.9025C4.61446 22.0627 4.5313 22.2108 4.4211 22.3378C4.3109 22.4648 4.17597 22.5679 4.02456 22.641C3.87315 22.7141 3.70843 22.7555 3.54046 22.7628C3.37249 22.7701 3.2048 22.7431 3.04763 22.6834C2.89046 22.6237 2.74711 22.5326 2.62633 22.4156C2.50556 22.2986 2.40989 22.1583 2.34518 22.0031C2.28047 21.8479 2.24807 21.6812 2.24996 21.5131V10.2341C2.25004 10.0408 2.32476 9.85495 2.45854 9.7154C2.59232 9.57585 2.77481 9.49334 2.96796 9.48509Z" fill="white"/>
</svg>
