<svg width="24" height="24" viewBox="0 0 24 24" fill="none" xmlns="http://www.w3.org/2000/svg">
<path fill-rule="evenodd" clip-rule="evenodd" d="M18.9061 3.92203C17.8921 2.88603 16.4461 2.50503 15.0311 2.90703C14.9353 2.93778 14.8343 2.94894 14.7341 2.93985C14.6339 2.93075 14.5366 2.90159 14.4479 2.8541C14.3592 2.80661 14.281 2.74176 14.2178 2.66341C14.1547 2.58506 14.108 2.49481 14.0805 2.39803C14.053 2.30126 14.0452 2.19993 14.0577 2.1001C14.0701 2.00026 14.1025 1.90395 14.153 1.81689C14.2034 1.72984 14.2709 1.65383 14.3513 1.59338C14.4317 1.53293 14.5235 1.48928 14.6211 1.46503C16.5581 0.913029 18.5751 1.44003 19.9781 2.87303C20.0486 2.94309 20.1044 3.02644 20.1423 3.11825C20.1803 3.21006 20.1996 3.3085 20.1992 3.40785C20.1988 3.5072 20.1787 3.60547 20.14 3.69697C20.1013 3.78847 20.0448 3.87137 19.9738 3.94086C19.9028 4.01034 19.8187 4.06503 19.7264 4.10173C19.6341 4.13844 19.5354 4.15644 19.436 4.15469C19.3367 4.15294 19.2387 4.13147 19.1477 4.09153C19.0568 4.05159 18.9746 3.99397 18.9061 3.92203ZM11.1901 3.30803C10.9761 2.94103 10.3521 2.71803 9.71913 3.08103C9.08713 3.44103 8.97613 4.07803 9.18713 4.43803L11.7121 8.77003C11.766 8.8552 11.8022 8.95035 11.8185 9.0498C11.8347 9.14925 11.8308 9.25097 11.8069 9.34887C11.783 9.44677 11.7396 9.53885 11.6793 9.61961C11.6191 9.70037 11.5431 9.76816 11.4561 9.81891C11.369 9.86967 11.2726 9.90236 11.1726 9.91504C11.0726 9.92771 10.9711 9.9201 10.8742 9.89267C10.7772 9.86524 10.6867 9.81855 10.6082 9.75538C10.5297 9.69221 10.4647 9.61387 10.4171 9.52503L7.89013 5.19403L7.04913 3.75003C6.83513 3.38303 6.21113 3.16003 5.57813 3.52303C4.94613 3.88303 4.83513 4.52003 5.04513 4.88003L8.83413 11.377C8.88377 11.4621 8.91616 11.5562 8.92946 11.6538C8.94275 11.7514 8.93669 11.8507 8.91162 11.9459C8.88655 12.0412 8.84296 12.1306 8.78333 12.209C8.72371 12.2875 8.64923 12.3534 8.56413 12.403C8.47903 12.4527 8.38499 12.4851 8.28738 12.4984C8.18976 12.5117 8.09048 12.5056 7.99521 12.4805C7.89994 12.4554 7.81054 12.4119 7.73211 12.3522C7.65368 12.2926 7.58777 12.2181 7.53813 12.133L5.85413 9.24503C5.64013 8.87803 5.01713 8.65503 4.38313 9.01803C3.75213 9.37803 3.64013 10.014 3.85113 10.375L7.63913 16.872C9.24913 19.631 13.2191 20.526 16.5861 18.602C19.9501 16.679 21.1461 12.838 19.5411 10.085L17.0151 5.75403C16.8011 5.38703 16.1771 5.16403 15.5441 5.52603C14.9121 5.88703 14.8021 6.52303 15.0121 6.88403L16.6961 9.77103C16.7462 9.85664 16.7787 9.95133 16.7919 10.0496C16.8052 10.1479 16.7987 10.2478 16.7731 10.3436C16.7474 10.4394 16.703 10.5292 16.6424 10.6077C16.5818 10.6862 16.5063 10.7519 16.4201 10.801C14.8771 11.681 14.4051 13.386 15.0801 14.544C15.1298 14.6291 15.1622 14.7232 15.1755 14.8208C15.1888 14.9184 15.1827 15.0177 15.1576 15.1129C15.1325 15.2082 15.089 15.2976 15.0293 15.376C14.9697 15.4545 14.8952 15.5204 14.8101 15.57C14.725 15.6197 14.631 15.6521 14.5334 15.6654C14.4358 15.6787 14.3365 15.6726 14.2412 15.6475C14.1459 15.6224 14.0565 15.5789 13.9781 15.5192C13.8997 15.4596 13.8338 15.3851 13.7841 15.3C12.7241 13.483 13.3921 11.237 15.0471 9.92303L11.1901 3.30803ZM13.9201 5.01003L12.4871 2.55403C11.7711 1.32603 10.1641 1.10003 8.97613 1.78003C8.61397 1.98508 8.30207 2.26828 8.06313 2.60903C7.26313 1.72803 5.88513 1.62103 4.83413 2.22103C3.64413 2.90203 3.03113 4.40303 3.75113 5.63703L4.75313 7.35603C4.36153 7.39918 3.98282 7.52167 3.64013 7.71603C2.44913 8.39603 1.83613 9.89803 2.55613 11.132L6.34513 17.629C8.45513 21.249 13.4091 22.147 17.3311 19.905C21.2551 17.663 22.9521 12.956 20.8381 9.33003L18.3101 5.00003C17.5941 3.77203 15.9871 3.54603 14.7991 4.22503C14.4491 4.42503 14.1491 4.69603 13.9181 5.01003M4.41413 17.86C4.49922 17.8104 4.59326 17.778 4.69088 17.7646C4.7885 17.7513 4.88779 17.7574 4.98307 17.7825C5.07835 17.8075 5.16775 17.8511 5.24618 17.9108C5.3246 17.9704 5.39051 18.0449 5.44013 18.13C6.26713 19.548 7.53013 20.62 9.09013 21.316C9.2718 21.3972 9.4138 21.5472 9.48487 21.733C9.55595 21.9189 9.55028 22.1254 9.46913 22.307C9.38797 22.4887 9.23797 22.6307 9.05212 22.7018C8.86627 22.7728 8.6598 22.7672 8.47813 22.686C6.66713 21.877 5.14713 20.606 4.14413 18.886C4.09446 18.8009 4.06205 18.7069 4.04874 18.6093C4.03543 18.5117 4.04149 18.4124 4.06656 18.3171C4.09163 18.2218 4.13523 18.1324 4.19487 18.054C4.25451 17.9756 4.32901 17.9097 4.41413 17.86Z" fill="white"/>
</svg>
