<svg width="24" height="24" viewBox="0 0 24 24" fill="none" xmlns="http://www.w3.org/2000/svg">
<path fill-rule="evenodd" clip-rule="evenodd" d="M3.25 10.143C3.25 5.244 7.155 1.25 12 1.25C16.845 1.25 20.75 5.244 20.75 10.143C20.75 12.508 20.076 15.048 18.884 17.242C17.694 19.433 15.956 21.337 13.781 22.354C13.2235 22.615 12.6155 22.7503 12 22.7503C11.3845 22.7503 10.7765 22.615 10.219 22.354C8.044 21.337 6.306 19.434 5.116 17.242C3.924 15.048 3.25 12.508 3.25 10.143ZM12 2.75C8.008 2.75 4.75 6.047 4.75 10.143C4.75 12.24 5.353 14.535 6.434 16.526C7.516 18.519 9.046 20.15 10.854 20.995C11.2125 21.163 11.6036 21.25 11.9995 21.25C12.3954 21.25 12.7865 21.163 13.145 20.995C14.954 20.15 16.484 18.519 17.566 16.526C18.647 14.536 19.25 12.24 19.25 10.143C19.25 6.047 15.992 2.75 12 2.75ZM14.262 6.38C15.202 6.721 15.75 7.647 15.75 8.757C15.75 9.536 15.318 10.232 14.883 10.752C14.431 11.294 13.871 11.769 13.411 12.119L13.339 12.174C12.99 12.441 12.587 12.75 12 12.75C11.413 12.75 11.01 12.44 10.66 12.174L10.59 12.119C10.129 11.769 9.569 11.294 9.116 10.752C8.682 10.232 8.25 9.536 8.25 8.757C8.25 7.647 8.798 6.721 9.738 6.38C10.474 6.113 11.285 6.264 12 6.747C12.715 6.264 13.526 6.113 14.262 6.38ZM13.75 7.79C13.513 7.703 13.057 7.724 12.528 8.249C12.3875 8.38823 12.1978 8.46635 12 8.46635C11.8022 8.46635 11.6125 8.38823 11.472 8.249C10.943 7.724 10.487 7.703 10.25 7.789C10.027 7.871 9.75 8.135 9.75 8.757C9.75 8.999 9.9 9.351 10.268 9.791C10.618 10.21 11.078 10.607 11.497 10.924C11.723 11.096 11.83 11.176 11.916 11.222C11.966 11.25 11.98 11.25 11.997 11.25H12.003C12.02 11.25 12.033 11.25 12.084 11.222C12.17 11.176 12.277 11.096 12.504 10.924C12.921 10.607 13.382 10.21 13.732 9.791C14.099 9.351 14.25 8.999 14.25 8.757C14.25 8.135 13.973 7.871 13.75 7.79Z" fill="white"/>
</svg>
