<svg width="24" height="24" viewBox="0 0 24 24" fill="none" xmlns="http://www.w3.org/2000/svg">
<path fill-rule="evenodd" clip-rule="evenodd" d="M9.46298 1.962C10.145 1.507 11.044 1.25 12 1.25C12.956 1.25 13.855 1.507 14.537 1.962C15.009 2.276 15.413 2.715 15.614 3.25H16C16.478 3.25 16.936 3.447 17.249 3.79C17.573 4.148 17.734 4.668 17.563 5.21C16.957 7.125 15.013 8.465 12.75 8.71V21.25H15C15.1989 21.25 15.3897 21.329 15.5303 21.4697C15.671 21.6103 15.75 21.8011 15.75 22C15.75 22.1989 15.671 22.3897 15.5303 22.5303C15.3897 22.671 15.1989 22.75 15 22.75H8.99998C8.80107 22.75 8.61031 22.671 8.46965 22.5303C8.329 22.3897 8.24998 22.1989 8.24998 22C8.24998 21.8011 8.329 21.6103 8.46965 21.4697C8.61031 21.329 8.80107 21.25 8.99998 21.25H11.25V17.937C11.2507 17.4229 11.1345 16.9153 10.9102 16.4528C10.6858 15.9902 10.3592 15.5847 9.95498 15.267L6.63298 12.892C6.12651 13.3632 5.50103 13.6872 4.82398 13.829C4.14693 13.9709 3.444 13.9252 2.79098 13.697C2.54409 13.6117 2.32507 13.4608 2.15737 13.2605C1.98967 13.0602 1.87961 12.818 1.83898 12.56C1.80002 12.32 1.81298 12.0745 1.87698 11.84C1.47659 11.3432 1.25585 10.7256 1.25058 10.0875C1.24532 9.44948 1.45584 8.82837 1.84798 8.325C2.23872 7.82269 2.78971 7.46935 3.40923 7.32379C4.02875 7.17824 4.67944 7.24925 5.25298 7.525C5.46332 7.40796 5.69685 7.33865 5.93698 7.322C6.19791 7.30158 6.45944 7.35316 6.69308 7.47112C6.92672 7.58909 7.1235 7.76891 7.26198 7.991C7.95798 9.086 8.06198 10.481 7.51198 11.677L10.852 14.064L10.863 14.073C10.999 14.1783 11.128 14.2897 11.25 14.407V8.71C8.98698 8.465 7.04298 7.125 6.43798 5.21C6.35947 4.96682 6.34708 4.70714 6.40208 4.45759C6.45709 4.20805 6.57751 3.97763 6.75098 3.79C6.91076 3.61883 7.10417 3.48251 7.3191 3.38958C7.53402 3.29666 7.76583 3.24914 7.99998 3.25H8.38598C8.58698 2.715 8.99098 2.276 9.46298 1.962ZM10.237 3.25H13.763L13.705 3.21C13.302 2.94 12.701 2.75 12 2.75C11.299 2.75 10.698 2.94 10.295 3.21L10.237 3.25ZM7.99998 4.75C7.9564 4.7501 7.91374 4.76259 7.87698 4.786C8.31498 6.118 9.91498 7.25 12 7.25C14.085 7.25 15.685 6.118 16.123 4.786L16.091 4.768C16.0625 4.75495 16.0313 4.74879 16 4.75H7.99998ZM4.11798 8.752C3.91006 8.74073 3.70251 8.77995 3.51304 8.86633C3.32358 8.9527 3.15784 9.08365 3.02998 9.248C2.90094 9.41398 2.81309 9.6082 2.77363 9.8147C2.73417 10.0212 2.74423 10.2341 2.80298 10.436L4.11798 8.752ZM5.97998 8.838C5.95032 8.85568 5.92393 8.87834 5.90198 8.905L3.36998 12.146C3.3488 12.1746 3.33289 12.2068 3.32298 12.241C3.31855 12.2573 3.31619 12.2741 3.31598 12.291C3.78209 12.4471 4.28595 12.4497 4.75368 12.2986C5.2214 12.1474 5.6284 11.8504 5.91498 11.451C6.18912 11.0717 6.34482 10.6197 6.36244 10.152C6.38005 9.68431 6.25881 9.22187 6.01398 8.823L5.97998 8.838Z" fill="black"/>
</svg>
