<svg width="25" height="24" viewBox="0 0 25 24" fill="none" xmlns="http://www.w3.org/2000/svg">
<path d="M18.5 7.00006C19.274 7.16006 19.859 7.42906 20.328 7.87606C21.5 8.99206 21.5 10.7881 21.5 14.3801C21.5 17.9721 21.5 19.7681 20.328 20.8841C19.156 22.0001 17.271 22.0001 13.5 22.0001H11.5C7.729 22.0001 5.843 22.0001 4.672 20.8841C3.501 19.7681 3.5 17.9721 3.5 14.3801C3.5 10.7881 3.5 8.99206 4.672 7.87606C5.142 7.42906 5.726 7.16006 6.5 7.00006M12.525 2.00006L12.5 14.0001M12.525 2.00006C12.3514 1.99784 12.1832 2.06021 12.053 2.17506C11.147 2.94006 9.5 4.92906 9.5 4.92906M12.525 2.00006C12.6812 2.00928 12.8297 2.07053 12.947 2.17406C13.853 2.94006 15.5 4.93006 15.5 4.93006" stroke="#625DF5" stroke-width="1.5" stroke-linecap="round" stroke-linejoin="round"/>
</svg>
